<?xml version="1.0" encoding="UTF-8"?>
<svg width="277px" height="249px" viewBox="0 0 277 249" version="1.1" xmlns="http://www.w3.org/2000/svg" xmlns:xlink="http://www.w3.org/1999/xlink">
    <defs>
        <path d="M0,51.0643939 C0,66.7770092 9.10917372,80.826087 23.4247148,90.1928524 L12.5945255,117 L46.4693884,99.9321476 C52.4929427,101.358037 58.8788161,102.128788 65.4990154,102.128788 C101.673817,102.128788 131,79.2674572 131,51.0643939 C131,22.8634717 101.673817,0 65.4990154,0 C29.3242142,0 0,22.8634717 0,51.0643939 Z" id="path-1"></path>
        <filter x="-7.6%" y="-6.8%" width="115.3%" height="117.1%" filterUnits="objectBoundingBox" id="filter-2">
            <feOffset dx="0" dy="2" in="SourceAlpha" result="shadowOffsetOuter1"></feOffset>
            <feGaussianBlur stdDeviation="3" in="shadowOffsetOuter1" result="shadowBlurOuter1"></feGaussianBlur>
            <feColorMatrix values="0 0 0 0 0   0 0 0 0 0   0 0 0 0 0  0 0 0 0.257809619 0" type="matrix" in="shadowBlurOuter1"></feColorMatrix>
        </filter>
    </defs>
    <g id="Footer-Links---Contact-Us,-FAQs,-ATM-Locator" stroke="none" stroke-width="1" fill="none" fill-rule="evenodd">
        <g id="Contact-Us-" transform="translate(-1092.000000, -201.000000)">
            <g id="Group-3" transform="translate(1092.000000, 205.000000)">
                <g id="Group" transform="translate(0.000000, 30.000000)">
                    <circle id="Oval" fill="#006342" cx="107.5" cy="107.5" r="107.5"></circle>
                    <g id="Group-3-Copy" transform="translate(42.190155, 29.000000)">
                        <path d="M108.470162,125.617898 C108.470162,125.617898 108.354071,78.5837919 108.354071,64.7935102 C108.354071,29.0084795 88.3913051,0 63.7703994,0 C39.1470752,0 19.186728,29.0084795 19.186728,64.7935102 C19.186728,78.5837919 19.186728,125.617898 19.186728,125.617898 L108.470162,125.617898" id="Fill-1" fill="#521313"></path>
                        <path d="M74.7085524,90.0096746 L53.9403753,90.0096746 C53.9403753,90.0096746 57.1114984,112.473116 42.0036054,131.04647 L63.3270945,165.18259 L65.3218332,165.18259 L86.6453223,131.04647 C71.5374293,112.473116 74.7085524,90.0096746 74.7085524,90.0096746" id="Fill-2" fill="#F4BC7F"></path>
                        <polyline id="Fill-3" fill="#FFFFFE" points="43.9876817 130.563484 64.8278605 165.18259 66.7971817 165.18259 87.6373604 130.563484 43.9876817 130.563484"></polyline>
                        <path d="M74.7408644,90.0096746 L53.9080633,90.0096746 C53.9080633,90.0096746 54.3160705,93.1344252 54.13772,98.0499081 C57.7071727,100.42379 61.3132726,101.879082 64.2059707,101.879082 C67.1768498,101.879082 70.8660172,100.330899 74.5063214,97.8357427 C74.3426298,93.0466948 74.7408644,90.0096746 74.7408644,90.0096746" id="Fill-4" fill="#DEA361"></path>
                        <path d="M99.0886305,47.3057555 C98.0846405,44.7164403 96.3319122,46.0560766 94.9657079,47.7604052 C95.3570939,27.6634292 84.7459163,17.4569078 84.7459163,17.4569078 L64.8216984,10.8802903 L44.8950495,17.4569078 C44.8950495,17.4569078 34.2133739,27.6391164 34.5537095,47.6145283 C33.2069529,45.9831382 31.5271537,44.79181 30.5523353,47.3057555 C28.7412638,51.9786793 32.9978896,58.3802445 32.1835152,64.8693358 C31.6316853,69.2577996 35.0933845,68.8153063 37.2836871,67.5899403 C38.1077855,70.90864 39.3329936,74.8254351 41.304509,79.4059702 C45.4711891,89.0970598 57.4266922,97.922613 64.7609242,97.922613 C72.0975872,97.922613 83.8780606,89.0265526 88.2197703,79.4059702 C90.2155955,74.9834685 91.4626823,71.3122328 92.2527471,67.5364521 C94.4357568,68.8031499 98.0165734,69.3258755 97.4574507,64.8693358 C96.6430762,58.3802445 100.899702,51.9786793 99.0886305,47.3057555" id="Fill-5" fill="#F4BC7F"></path>
                        <path d="M87.114693,16.4153369 L78.7090171,18.5909886 C79.8106499,20.6347099 85.4297009,27.4471144 88.5272901,35.7515313 C91.4344438,43.5354229 91.8755791,52.6290233 91.5766677,60.3361555 L93.107383,57.7383266 C95.3010065,54.020289 96.6244123,49.8752768 97.0221572,45.581543 C98.0996844,33.9093036 98.6830436,11.9536918 87.114693,16.4153369" id="Fill-6" fill="#521313"></path>
                        <path d="M35.5415447,57.7383266 L37.0746705,60.3361555 C36.7733486,52.6290233 37.2168945,43.5354229 40.1216377,35.7515313 C43.2192269,27.4471144 48.8382778,20.6347099 49.9399107,18.5909886 L41.5342347,16.4153369 C29.9658841,11.9536918 30.5492433,33.9093036 31.6267705,45.581543 C32.0245154,49.8752768 33.3479212,54.020289 35.5415447,57.7383266" id="Fill-7" fill="#521313"></path>
                        <path d="M65.3177121,9.58205853 C35.8803213,2.44790477 33.0752621,35.99322 33.0752621,35.99322 C57.7278365,42.3903422 63.9018712,28.111654 65.3177121,18.1772994 C66.7335531,28.111654 72.9051675,42.3903422 97.5577419,35.99322 C97.5577419,35.99322 94.7551029,2.44790477 65.3177121,9.58205853" id="Fill-8" fill="#521313"></path>
                        <path d="M34.9648702,47.4776306 C34.7453292,39.4530331 35.6012926,29.5546717 39.8391748,21.750517 C44.6271431,12.9375968 52.8833665,8.41851922 64.3241686,8.41851922 C75.7649706,8.41851922 84.0211941,12.9375968 88.8091623,21.750517 C93.0470446,29.5546717 93.903008,39.4530331 93.6859337,47.4776306 L97.5168016,47.4776306 C97.7856778,38.6048075 96.8187104,27.5179718 91.9567396,18.5037778 C86.4238118,8.23881041 77.1044177,2.96735191 64.3241686,2.96735191 C51.5439195,2.96735191 42.2245253,8.23881041 36.6915976,18.5037778 C31.8296267,27.5179718 30.8651261,38.6048075 31.1315355,47.4776306 L34.9648702,47.4776306" id="Fill-9" fill="#494946"></path>
                        <path d="M33.0752621,45.1345703 C32.2374171,44.734514 31.3408208,44.5102786 30.4007997,44.5102786 C25.8514037,44.5102786 22.1628424,49.6014409 22.1628424,55.8851276 C22.1628424,62.1662662 25.8514037,67.2599766 30.4007997,67.2599766 C31.3408208,67.2599766 32.2374171,67.0331931 33.0752621,66.635685 L33.0752621,45.1345703" id="Fill-10" fill="#494946"></path>
                        <path d="M36.0513765,43.1201239 C35.3954749,42.7578469 34.6517946,42.532044 33.8520335,42.532044 L33.7593783,42.532044 C31.1894143,42.532044 29.1071095,44.6511166 29.1071095,47.2639778 L29.1071095,66.4845121 C29.1071095,69.0973732 31.1894143,71.2164458 33.7593783,71.2164458 L33.8520335,71.2164458 C34.6517946,71.2164458 35.3954749,70.990643 36.0513765,70.628366 L36.0513765,43.1201239" id="Fill-11" fill="#58BBBB"></path>
                        <path d="M96.5657038,65.2842097 L94.5601562,65.281742 C94.5578078,66.0689231 94.2619074,83.6410752 73.6522057,85.4547997 C73.2623686,84.8378866 72.6282962,84.4085151 71.8744546,84.4085151 L64.0166536,84.4085151 C62.8166128,84.4085151 61.8443685,85.4301232 61.8443685,86.6910935 L61.8443685,86.7379789 C61.8443685,87.9989492 62.8166128,89.0205573 64.0166536,89.0205573 L71.8744546,89.0205573 C72.802079,89.0205573 73.5794048,88.4036442 73.8917442,87.5449012 C96.2416223,85.5066204 96.5657038,65.4988954 96.5657038,65.2842097" id="Fill-12" fill="#494946"></path>
                        <path d="M94.5816275,45.1345703 C95.4220268,44.734514 96.3186231,44.5102786 97.2560899,44.5102786 C101.805486,44.5102786 105.494047,49.6014409 105.494047,55.8851276 C105.494047,62.1662662 101.805486,67.2599766 97.2560899,67.2599766 C96.3186231,67.2599766 95.4220268,67.0331931 94.5816275,66.635685 L94.5816275,45.1345703" id="Fill-13" fill="#494946"></path>
                        <path d="M92.5975512,43.1201239 C93.2558911,42.7578469 93.9971331,42.532044 94.7993325,42.532044 L94.8919877,42.532044 C97.4595134,42.532044 99.5418182,44.6511166 99.5418182,47.2639778 L99.5418182,66.4845121 C99.5418182,69.0973732 97.4595134,71.2164458 94.8919877,71.2164458 L94.7993325,71.2164458 C93.9971331,71.2164458 93.2558911,70.990643 92.5975512,70.628366 L92.5975512,43.1201239" id="Fill-14" fill="#58BBBB"></path>
                        <path d="M101.979812,118.228302 L77.1758403,112.759373 L64.7629403,158.329003 L52.3354882,112.759373 L27.6600594,118.228302 C20.5635089,119.924649 14.8105979,124.275423 12.0869389,130.007166 C12.0869389,130.007166 -3.02992536,157.399519 0.547843346,160.413666 C10.5546308,168.844042 19.6132958,172.966712 30.0991476,176.025202 C40.5849995,179.083693 49.9399107,182 65.8125211,182.02309 C74.0227393,182.034719 82.8123459,180.550452 91.2618414,179.094634 C98.5497801,177.838948 104.260382,175.140453 112.911511,170.956846 C118.455091,168.276021 123.521061,165.18259 126.633448,162.819263 C130.457011,159.91592 117.552933,130.007166 117.552933,130.007166 C114.829274,124.275423 109.076363,119.924649 101.979812,118.228302 Z" id="Fill-15" fill="#FFA303"></path>
                        <polygon id="Fill-16" fill="#FFFFFE" points="77.7169789 146.389361 98.5497801 146.389361 98.5497801 141.443774 77.7169789 141.443774"></polygon>
                    </g>
                </g>
                <g id="Group-5" transform="translate(140.000000, 0.000000)">
                    <g id="Fill-146">
                        <use fill="black" fill-opacity="1" filter="url(#filter-2)" xlink:href="#path-1"></use>
                        <use fill="#FFFFFF" fill-rule="evenodd" xlink:href="#path-1"></use>
                    </g>
                    <path d="M58.8934711,79.7710766 L49.4253399,66.4492236 C49.2535869,66.2068911 48.9317968,66.1618559 48.7087153,66.3484304 L43.8581735,70.4187583 C43.635092,70.6053329 43.5936344,70.9527476 43.7653874,71.1972246 L43.852251,71.3173186 C40.4704935,70.9977829 34.3683264,66.3913212 30.7733583,61.4138548 C27.2514346,56.3763416 24.692907,48.797554 25.2634429,45.1625668 L25.3503065,45.2848053 C25.5220595,45.5271377 25.8438496,45.572173 26.0649569,45.3855984 L30.9174729,41.3152705 C31.1425285,41.128696 31.182012,40.7812812 31.010259,40.5368042 L21.5421278,27.2149513 C21.3684006,26.9726188 21.0485846,26.9297281 20.8255031,27.1141581 L15.971013,31.1866306 C15.7499057,31.3732051 15.7084481,31.7184753 15.8782269,31.9586632 L15.8821753,31.9629523 C13.3098285,34.8645085 12.4431668,38.2378624 13.3473378,43.0180315 C13.7974491,45.4070438 14.9424692,54.971671 23.6959499,67.3370612 C32.4928625,79.6659943 40.7330585,83.3052706 42.7467144,84.3861164 C46.7760004,86.5456634 49.9978499,86.4856164 53.2335186,84.5190776 L53.237467,84.5233667 C53.4072458,84.7635546 53.7250876,84.8064453 53.9461949,84.6220153 L58.800685,80.5495428 C59.0257407,80.3629683 59.0652241,80.013409 58.8934711,79.7710766" id="Fill-147" fill="#FFA303"></path>
                    <path d="M58.7911487,27.5077951 C58.7911487,32.1893096 54.8155147,34.4832962 51.0804326,37.6904232 L59,37.6904232 L59,43 L44,43 L44,41.4922049 C44,39.1358575 45.0535803,37.467706 46.5285927,35.8975501 C50.6328941,31.5300668 53.5791895,29.7706013 53.5791895,27.7260579 C53.5791895,26.532294 52.9209349,25.4320713 51.3172551,25.4320713 C49.6856042,25.4320713 48.7644207,26.688196 48.7644207,28.3853007 L48.7644207,29.013363 L44.080184,29.013363 C44.0522128,28.7639198 44.0522128,28.5434298 44.0522128,28.3229399 C44.0522128,23.8908686 46.6311537,21 51.8151417,21 C56.1040527,21 58.7911487,23.5768374 58.7911487,27.5077951" id="Fill-148" fill="#006342"></path>
                    <path d="M71.6213625,21 C71.2120278,24.4276169 67.3495378,30.8997773 64.7519114,33.9510022 L70.1722013,33.9510022 L70.1722013,29.454343 C71.1014493,27.9131403 72.6631291,24.8663697 73.0453041,23.0757238 L75.371334,23.0757238 L75.371334,33.9510022 L78,33.9510022 L78,38.5701559 L75.371334,38.5701559 L75.371334,43 L70.1722013,43 L70.1722013,38.5701559 L61,38.5701559 L61,33.8864143 C62.778957,30.8997773 65.0235079,25.935412 66.255392,21 L71.6213625,21" id="Fill-149" fill="#006342"></path>
                    <polyline id="Fill-150" fill="#FFA303" points="83.473525 43 80 43 84.5547151 20 88 20 83.473525 43"></polyline>
                    <path d="M108,24.77938 C104.497007,29.5702956 101.242272,35.0036049 101.242272,41.2004326 L101.242272,43 L95.1178986,43 C95.1178986,37.2033165 97.655223,31.7072819 101.101527,27.2516222 L92,27.2516222 L92,22 L108,22 L108,24.77938" id="Fill-151" fill="#006342"></path>
                </g>
                <g id="SUPPORT" transform="translate(185.566388, 52.780000)" fill="#006342" fill-rule="nonzero">
                    <path d="M0.105611871,8.4 C0.819611871,9.856 2.10761187,10.388 3.82961187,10.388 C6.19561187,10.388 7.84761187,9.268 7.84761187,7.168 C7.84761187,3.346 2.75161187,4.564 2.75161187,2.856 C2.75161187,2.366 3.22761187,2.058 3.78761187,2.058 C4.23561187,2.058 4.61361187,2.198 4.90761187,2.492 C5.29961187,2.87 5.38361187,3.178 6.13961187,2.912 L6.89561187,2.646 C7.55361187,2.422 7.46961187,2.016 7.24561187,1.652 C6.50361187,0.462 5.32761187,0 3.71761187,0 C1.61761187,0 0.0776118711,1.19 0.0776118711,2.87 C0.0776118711,6.832 5.31361187,5.572 5.31361187,7.378 C5.31361187,7.98 4.73961187,8.274 4.01161187,8.274 C3.38161187,8.274 2.91961187,8.036 2.62561187,7.63 C2.31761187,7.21 2.30361187,6.846 1.56161187,7.084 L0.539611871,7.406 C-0.0763881289,7.602 -0.0763881289,8.008 0.105611871,8.4 Z" id="Path"></path>
                    <path d="M10.0621573,5.978 C10.0621573,8.792 11.1401573,10.388 14.2341573,10.388 C17.3281573,10.388 18.6161573,8.792 18.6161573,5.978 L18.6161573,0.994 C18.6161573,0.266 18.2381573,0.168 17.7901573,0.168 L16.7121573,0.168 C16.2641573,0.168 15.8861573,0.266 15.8861573,0.994 L15.8861573,6.51 C15.8861573,7.588 15.2701573,8.176 14.2901573,8.176 C13.2961573,8.176 12.8061573,7.588 12.8061573,6.51 L12.8061573,0.994 C12.8061573,0.266 12.4281573,0.168 11.9801573,0.168 L10.8881573,0.168 C10.4401573,0.168 10.0621573,0.266 10.0621573,0.994 L10.0621573,5.978 Z" id="Path"></path>
                    <path d="M21.2227028,9.394 C21.2227028,10.122 21.6007028,10.22 22.0487028,10.22 L23.1267028,10.22 C23.5747028,10.22 23.9527028,10.122 23.9527028,9.394 L23.9527028,6.832 L25.2407028,6.832 C27.6207028,6.832 29.2307028,5.782 29.2307028,3.472 C29.2307028,1.274 27.9147028,0.168 25.1707028,0.168 L22.0487028,0.168 C21.6007028,0.168 21.2227028,0.406 21.2227028,0.994 L21.2227028,9.394 Z M23.9527028,4.69 L23.9527028,2.394 L25.2967028,2.394 C26.0107028,2.394 26.5007028,2.786 26.5007028,3.472 C26.5007028,4.354 25.9687028,4.69 25.3247028,4.69 L23.9527028,4.69 Z" id="Shape"></path>
                    <path d="M31.4172482,9.394 C31.4172482,10.122 31.7952482,10.22 32.2432482,10.22 L33.3212482,10.22 C33.7692482,10.22 34.1472482,10.122 34.1472482,9.394 L34.1472482,6.832 L35.4352482,6.832 C37.8152482,6.832 39.4252482,5.782 39.4252482,3.472 C39.4252482,1.274 38.1092482,0.168 35.3652482,0.168 L32.2432482,0.168 C31.7952482,0.168 31.4172482,0.406 31.4172482,0.994 L31.4172482,9.394 Z M34.1472482,4.69 L34.1472482,2.394 L35.4912482,2.394 C36.2052482,2.394 36.6952482,2.786 36.6952482,3.472 C36.6952482,4.354 36.1632482,4.69 35.5192482,4.69 L34.1472482,4.69 Z" id="Shape"></path>
                    <path d="M45.7137937,10.388 C48.7237937,10.388 50.2357937,8.218 50.2357937,5.194 C50.2357937,2.954 49.2557937,0 45.7137937,0 C42.1717937,0 41.1917937,2.954 41.1917937,5.194 C41.1917937,8.218 42.7037937,10.388 45.7137937,10.388 Z M45.7137937,8.246 C44.4117937,8.246 43.9217937,7.112 43.9217937,5.194 C43.9217937,3.248 44.4397937,2.086 45.7137937,2.086 C46.9877937,2.086 47.5057937,3.248 47.5057937,5.194 C47.5057937,7.112 47.0157937,8.246 45.7137937,8.246 Z" id="Shape"></path>
                    <path d="M52.5063391,9.394 C52.5063391,9.982 52.8843391,10.22 53.3323391,10.22 L54.4103391,10.22 C54.8583391,10.22 55.2363391,9.982 55.2363391,9.394 L55.2363391,6.594 L56.5103391,6.594 L57.6443391,9.45 C57.8823391,10.038 58.1483391,10.22 58.6383391,10.22 L60.1223391,10.22 C60.5143391,10.22 60.8643391,10.052 60.5983391,9.464 L58.9463391,5.81 C59.8703391,5.32 60.4723391,4.452 60.4723391,3.206 C60.4723391,1.19 59.1003391,0.168 56.3703391,0.168 L53.3323391,0.168 C52.8843391,0.168 52.5063391,0.406 52.5063391,0.994 L52.5063391,9.394 Z M55.2363391,4.466 L55.2363391,2.394 L56.4543391,2.394 C57.0003391,2.394 57.7143391,2.506 57.7143391,3.416 C57.7143391,4.34 56.8883391,4.466 56.3283391,4.466 L55.2363391,4.466 Z" id="Shape"></path>
                    <path d="M64.7308846,9.394 C64.7308846,10.108 65.1088846,10.22 65.5568846,10.22 L66.6348846,10.22 C67.0828846,10.22 67.4608846,10.122 67.4608846,9.394 L67.4608846,2.394 L69.1548846,2.394 C69.8828846,2.394 69.9808846,2.016 69.9808846,1.568 L69.9808846,0.994 C69.9808846,0.546 69.8828846,0.168 69.1548846,0.168 L63.0368846,0.168 C62.3088846,0.168 62.2108846,0.546 62.2108846,0.994 L62.2108846,1.568 C62.2108846,2.016 62.3088846,2.394 63.0368846,2.394 L64.7308846,2.394 L64.7308846,9.394 Z" id="Path"></path>
                </g>
            </g>
        </g>
    </g>
</svg>