<?xml version="1.0" encoding="UTF-8"?>
<svg width="177px" height="113px" viewBox="0 0 177 113" version="1.1" xmlns="http://www.w3.org/2000/svg" xmlns:xlink="http://www.w3.org/1999/xlink">

    <g id="Footer-Links---Contact-Us,-FAQs,-ATM-Locator" stroke="none" stroke-width="1" fill="none" fill-rule="evenodd">
        <g id="Contact-Us-" transform="translate(-469.000000, -800.000000)">
            <g id="Group-11" transform="translate(557.250000, 856.250000) scale(-1, 1) rotate(90.000000) translate(-557.250000, -856.250000) translate(501.000000, 768.000000)">
                <path d="M100.208116,0.5 C106.819117,0.487050728 112.189328,5.81163779 112.201825,12.392644 L112.5,164.44584 C112.514254,171.028268 107.163682,176.373825 100.552681,176.386265 L41.8445647,176.5 L41.5,0.613758911 L100.208116,0.5" id="Fill-57-Copy" fill="#006342"></path>
                <path d="M12.083927,176 C5.58368854,176.012425 0.305721607,170.685267 0.292911007,164.099221 L2.84217094e-14,11.9624566 C-0.0124375251,5.37712218 5.24534833,0.0284494411 11.7443584,0.0165362377 L19.6618353,0 L20,175.983975 L12.083927,176" id="Fill-58-Copy" fill="#006342"></path>
                <polyline id="Fill-59-Copy" fill="#3B4646" points="19.5 0.543378654 42.151277 0.5 42.5 176.455555 19.848181 176.5 19.5 0.543378654"></polyline>
                <polyline id="Fill-60-Copy" fill="#F3F8F7" points="65 97.9748505 64.819837 5 52 5.02497118 52.180163 98 65 97.9748505"></polyline>
                <polyline id="Fill-64-Copy" fill="#FFA303" points="96.5 117.47973 96.4416278 86.5 86.5 86.5204429 86.5583722 117.5 96.5 117.47973"></polyline>
            </g>
        </g>
    </g>
</svg>