<?xml version="1.0" encoding="UTF-8"?>
<svg width="71px" height="68px" viewBox="0 0 71 68" version="1.1" xmlns="http://www.w3.org/2000/svg" xmlns:xlink="http://www.w3.org/1999/xlink">
 
    <g id="Footer-Links---Contact-Us,-FAQs,-ATM-Locator" stroke="none" stroke-width="1" fill="none" fill-rule="evenodd">
        <g id="Contact-Us-" transform="translate(-785.000000, -1076.000000)">
            <g id="Group-2" transform="translate(785.000000, 1076.000000)">
                <path d="M0,26.154006 L32.0574217,1.18370901 C34.0839025,-0.394569671 36.9156841,-0.394569671 38.9421649,1.18370901 L71,26.154006 L71,68 L0,68 L0,26.154006" id="Fill-103" fill="#E9863B"></path>
                <polygon id="Fill-104" fill="#FAF8F6" points="8 64 63 64 63 4 8 4"></polygon>
                <polygon id="Fill-105" fill="#CFCFCA" points="11 9 59 9 59 7 11 7"></polygon>
                <polygon id="Fill-106" fill="#CFCFCA" points="11 13 52 13 52 11 11 11"></polygon>
                <polygon id="Fill-107" fill="#CFCFCA" points="11 17 45 17 45 15 11 15"></polygon>
                <polygon id="Fill-110" fill="#CFCFCA" points="35 35 61 35 61 33 35 33"></polygon>
                <polygon id="Fill-111" fill="#CFCFCA" points="40 38 61 38 61 36 40 36"></polygon>
                <polyline id="Fill-112" fill="#EE9B52" points="35 47.0002087 0 26 0 68 35 47.0002087"></polyline>
                <polyline id="Fill-113" fill="#EE9B52" points="36 47.0002087 71 26 71 68 36 47.0002087"></polyline>
                <path d="M32.0574217,43.1767575 L0,68 L71,68 L38.9421649,43.1767575 C36.9156841,41.6077475 34.0839025,41.6077475 32.0574217,43.1767575" id="Fill-114" fill="#F1AC6F"></path>
            </g>
        </g>
    </g>
</svg>