<?xml version="1.0" encoding="UTF-8"?>
<svg width="95px" height="101px" viewBox="0 0 95 101" version="1.1" xmlns="http://www.w3.org/2000/svg" xmlns:xlink="http://www.w3.org/1999/xlink">
 
    <g id="Footer-Links---Contact-Us,-FAQs,-ATM-Locator" stroke="none" stroke-width="1" fill="none" fill-rule="evenodd">
        <g id="Contact-Us-" transform="translate(-105.000000, -1059.000000)">
            <g id="Group-4" transform="translate(105.000000, 1059.000000)">
                <path d="M10,-1.13686838e-13 L85,-1.13686838e-13 C90.5228475,-1.14701368e-13 95,4.4771525 95,10 L95,67.8662109 C94.9988668,73.3890583 90.520796,77.8652923 84.9979486,77.8641593 C84.9300586,77.8641454 84.8621705,77.8634401 84.7942941,77.8620847 C81.9689268,77.8045233 80.0636357,78.5171618 79.0784206,80 C77.9470557,81.7028071 80.3663341,84.6581384 82.2398301,89.187506 C83.0848498,91.2304274 84.3573514,94.9952974 86.0573347,100.482116 L62.1561814,80 L10,80 C4.4771525,80 6.76353751e-16,75.5228475 0,70 L0,10 C-6.76353751e-16,4.4771525 4.4771525,-1.12672307e-13 10,-1.13686838e-13 Z" id="Rectangle-Copy-4" fill="#006342"></path>
                <g id="?" transform="translate(33.000000, 12.000000)" fill="#F4F4F4" fill-rule="nonzero">
                    <path d="M10.8994387,35.668 L13.6374387,35.668 C15.0434387,35.668 16.0794387,35.076 16.0794387,32.93 C16.0794387,26.714 28.1414387,21.904 28.1414387,11.914 C28.1414387,4.588 23.2574387,0 14.5994387,0 C8.45743871,0 3.49943871,2.072 0.68743871,7.178 C-0.20056129,8.732 -0.71856129,10.434 2.31543871,11.396 L4.23943871,11.988 C6.90343871,12.802 7.56943871,11.692 8.82743871,9.99 C10.0854387,8.362 11.5654387,7.622 13.6374387,7.622 C16.5974387,7.622 18.4474387,9.472 18.4474387,12.358 C18.4474387,19.98 8.60543871,23.68 8.60543871,32.042 C8.60543871,34.854 9.41943871,35.668 10.8994387,35.668 Z M7.05143871,50.542 C7.05143871,53.206 8.60543871,54.02 10.5294387,54.02 L14.1554387,54.02 C16.0794387,54.02 17.6334387,53.206 17.6334387,50.542 L17.6334387,46.916 C17.6334387,44.252 16.0794387,43.438 14.1554387,43.438 L10.5294387,43.438 C8.60543871,43.438 7.05143871,44.252 7.05143871,46.916 L7.05143871,50.542 Z" id="Shape"></path>
                </g>
            </g>
        </g>
    </g>
</svg>