<?xml version="1.0" encoding="UTF-8"?>
<svg width="85px" height="42px" viewBox="0 0 85 42" version="1.1" xmlns="http://www.w3.org/2000/svg" xmlns:xlink="http://www.w3.org/1999/xlink">
    <!-- Generator: Sketch 50.2 (55047) - http://www.bohemiancoding.com/sketch -->
    <title>Alliance_One Logo</title>
    <desc>Created with Sketch.</desc>
    <defs></defs>
    <g id="ATM-Locator" stroke="none" stroke-width="1" fill="none" fill-rule="evenodd">
        <g id="2.0-ATM-Locator" transform="translate(-268.000000, -1435.000000)" fill="#2E4591">
            <path d="M275.624158,1447.73631 C275.743078,1447.73631 275.836404,1447.75754 275.904447,1447.8003 C275.972491,1447.84275 276.031795,1447.9573 276.082671,1448.14395 C276.28649,1448.85716 276.460656,1449.48141 276.604858,1450.01639 C276.749373,1450.55138 276.821474,1450.92905 276.821474,1451.15004 C276.821474,1451.30267 276.766228,1451.41753 276.655735,1451.49369 C276.545554,1451.57016 276.422265,1451.6382 276.28649,1451.69751 C276.150715,1451.75681 276.027425,1451.82485 275.917244,1451.90132 C275.806752,1451.9778 275.751505,1452.10077 275.751505,1452.27057 C275.751505,1452.45753 275.802694,1452.58894 275.904447,1452.66541 C276.0062,1452.74188 276.269635,1452.78027 276.694127,1452.78027 C277.118618,1452.78027 277.539052,1452.76311 277.955117,1452.72908 C278.371181,1452.69537 278.791303,1452.67821 279.215795,1452.67821 C279.640598,1452.67821 280.06072,1452.69537 280.476785,1452.72908 C280.892849,1452.76311 281.313283,1452.78027 281.737775,1452.78027 C281.99247,1452.78027 282.209085,1452.76311 282.38731,1452.72908 C282.565534,1452.69537 282.654802,1452.56771 282.654802,1452.34704 C282.654802,1452.17724 282.607983,1452.06675 282.514657,1452.01588 C282.421331,1451.965 282.310839,1451.90132 282.183491,1451.82485 C282.056144,1451.74838 281.915999,1451.62541 281.763369,1451.45561 C281.610427,1451.28581 281.474652,1451.00552 281.355732,1450.61505 L277.305582,1437.24138 C277.237538,1437.03787 277.161067,1436.9021 277.076169,1436.83405 C276.991271,1436.76601 276.829901,1436.73199 276.592373,1436.73199 L274.834478,1436.73199 C274.59695,1436.73199 274.435581,1436.76195 274.350683,1436.82126 C274.265784,1436.88087 274.206168,1437.00385 274.172459,1437.19081 C273.951473,1438.0398 273.722372,1438.95682 273.484532,1439.94158 C273.246692,1440.92665 273.000424,1441.91578 272.745729,1442.90928 C272.491034,1443.90278 272.249137,1444.86662 272.019724,1445.8005 C271.790623,1446.7347 271.582435,1447.57525 271.395783,1448.32249 C271.20882,1449.06972 271.04745,1449.68929 270.911675,1450.18182 C270.775901,1450.67436 270.691002,1450.9715 270.65698,1451.07357 C270.588937,1451.26022 270.487184,1451.40473 270.351409,1451.50649 C270.215322,1451.60824 270.075177,1451.69345 269.930975,1451.76118 C269.786772,1451.82922 269.659425,1451.90132 269.548932,1451.9778 C269.43844,1452.05427 269.383193,1452.16039 269.383193,1452.29616 C269.383193,1452.43194 269.417215,1452.54649 269.485258,1452.64013 C269.55299,1452.73345 269.689077,1452.78027 269.892895,1452.78027 C270.164445,1452.78027 270.427568,1452.76311 270.682575,1452.72908 C270.93727,1452.69537 271.200392,1452.67821 271.471942,1452.67821 C271.743804,1452.67821 272.002869,1452.69537 272.249137,1452.72908 C272.495404,1452.76311 272.728875,1452.78027 272.949548,1452.78027 C273.136199,1452.78027 273.267917,1452.75031 273.344388,1452.691 C273.420858,1452.63139 273.458938,1452.50841 273.458938,1452.32145 C273.458938,1452.11794 273.382467,1451.98622 273.229837,1451.92692 C273.076895,1451.8673 272.907099,1451.808 272.720447,1451.74838 C272.533484,1451.68908 272.363687,1451.59575 272.210745,1451.46809 C272.058115,1451.34106 271.981644,1451.11602 271.981644,1450.79328 C271.981644,1450.55544 272.028151,1450.23707 272.121789,1449.83786 C272.215115,1449.43896 272.372114,1448.84873 272.592788,1448.06779 C272.626809,1447.9317 272.673628,1447.84275 272.732932,1447.8003 C272.792548,1447.75754 272.890244,1447.73631 273.026019,1447.73631 L275.624158,1447.73631 Z M273.255119,1446.61578 C273.085323,1446.61578 273.000424,1446.53931 273.000424,1446.38637 C273.000424,1446.33549 273.009164,1446.27182 273.026019,1446.19534 C273.042874,1446.11887 273.072838,1445.97873 273.114975,1445.77491 C273.157424,1445.57109 273.22141,1445.28675 273.306308,1444.92156 C273.391206,1444.55668 273.501387,1444.07694 273.637162,1443.48234 C273.773249,1442.83718 273.870945,1442.43391 273.930249,1442.27254 C273.989553,1442.11117 274.061966,1442.03064 274.146864,1442.03064 C274.197741,1442.03064 274.24019,1442.05593 274.274212,1442.10711 C274.308233,1442.15799 274.346313,1442.24695 274.388762,1442.37429 C274.431211,1442.50164 274.486458,1442.68861 274.554501,1442.93487 C274.622232,1443.18114 274.71587,1443.49108 274.834478,1443.86439 C275.055464,1444.59476 275.216833,1445.13817 275.318586,1445.49493 C275.420339,1445.85138 275.471528,1446.08922 275.471528,1446.20814 C275.471528,1446.32706 275.445934,1446.42476 275.395057,1446.50092 C275.343868,1446.57739 275.233688,1446.61578 275.063891,1446.61578 L273.255119,1446.61578 Z M283.800929,1450.7424 C283.800929,1451.03112 283.76285,1451.25585 283.686379,1451.41753 C283.609908,1451.57859 283.410459,1451.69345 283.087721,1451.76118 C282.951946,1451.7952 282.816171,1451.85045 282.680396,1451.92692 C282.544309,1452.00308 282.476578,1452.1348 282.476578,1452.32145 C282.476578,1452.50841 282.569903,1452.63139 282.756555,1452.691 C282.943519,1452.75031 283.13017,1452.78027 283.317134,1452.78027 C283.418887,1452.78027 283.516582,1452.7759 283.609908,1452.76748 C283.703234,1452.75905 283.839321,1452.74625 284.017545,1452.72908 C284.195769,1452.71223 284.433609,1452.69943 284.730753,1452.691 C285.027898,1452.68258 285.431477,1452.67821 285.940867,1452.67821 C286.450257,1452.67821 286.853524,1452.68258 287.150668,1452.691 C287.448125,1452.69943 287.685653,1452.71223 287.863877,1452.72908 C288.042413,1452.74625 288.178188,1452.75905 288.271514,1452.76748 C288.36484,1452.7759 288.462535,1452.78027 288.5646,1452.78027 C288.751252,1452.78027 288.938215,1452.75031 289.124867,1452.691 C289.311831,1452.63139 289.405156,1452.50841 289.405156,1452.32145 C289.405156,1452.1348 289.337113,1452.00308 289.201338,1451.92692 C289.065563,1451.85045 288.929476,1451.7952 288.793701,1451.76118 C288.471275,1451.69345 288.271514,1451.57859 288.195043,1451.41753 C288.118572,1451.25585 288.080492,1451.03112 288.080492,1450.7424 L288.080492,1436.06997 C288.080492,1435.76409 288.067695,1435.50939 288.042413,1435.30557 C288.016819,1435.10175 287.919123,1435 287.749327,1435 C287.69845,1435 287.609182,1435.02528 287.481834,1435.07647 C287.354487,1435.12735 287.167835,1435.19945 286.921568,1435.29277 C286.6753,1435.3861 286.348504,1435.50096 285.940867,1435.63674 C285.53323,1435.77251 285.0151,1435.91703 284.38679,1436.06997 C284.013175,1436.17172 283.703234,1436.24382 283.457278,1436.28627 C283.211011,1436.32872 283.011562,1436.37554 282.85862,1436.42642 C282.705678,1436.47729 282.599555,1436.53691 282.539939,1436.60464 C282.480635,1436.67268 282.450983,1436.77444 282.450983,1436.91052 C282.450983,1437.06315 282.50186,1437.16928 282.603925,1437.22889 C282.705678,1437.2882 282.917924,1437.3603 283.240663,1437.44551 C283.427314,1437.49639 283.567459,1437.59408 283.660785,1437.73828 C283.754423,1437.88249 283.800929,1438.184 283.800929,1438.64251 L283.800929,1450.7424 Z M290.88245,1450.7424 C290.88245,1451.03112 290.844371,1451.25585 290.7679,1451.41753 C290.691429,1451.57859 290.49198,1451.69345 290.169241,1451.76118 C290.033466,1451.7952 289.897692,1451.85045 289.761605,1451.92692 C289.62583,1452.00308 289.558098,1452.1348 289.558098,1452.32145 C289.558098,1452.50841 289.651424,1452.63139 289.838075,1452.691 C290.025039,1452.75031 290.211691,1452.78027 290.398654,1452.78027 C290.500407,1452.78027 290.598103,1452.7759 290.691429,1452.76748 C290.784754,1452.75905 290.920841,1452.74625 291.099066,1452.72908 C291.27729,1452.71223 291.51513,1452.69943 291.812274,1452.691 C292.109418,1452.68258 292.512997,1452.67821 293.022388,1452.67821 C293.531778,1452.67821 293.935045,1452.68258 294.232189,1452.691 C294.529645,1452.69943 294.767173,1452.71223 294.945397,1452.72908 C295.123622,1452.74625 295.259709,1452.75905 295.353034,1452.76748 C295.44636,1452.7759 295.544056,1452.78027 295.645809,1452.78027 C295.832772,1452.78027 296.019736,1452.75031 296.206388,1452.691 C296.393351,1452.63139 296.486677,1452.50841 296.486677,1452.32145 C296.486677,1452.1348 296.418633,1452.00308 296.282858,1451.92692 C296.147084,1451.85045 296.010996,1451.7952 295.875222,1451.76118 C295.552483,1451.69345 295.353034,1451.57859 295.276563,1451.41753 C295.200092,1451.25585 295.162013,1451.03112 295.162013,1450.7424 L295.162013,1436.06997 C295.162013,1435.76409 295.149216,1435.50939 295.123622,1435.30557 C295.098339,1435.10175 295.000644,1435 294.830847,1435 C294.779971,1435 294.690702,1435.02528 294.563355,1435.07647 C294.436007,1435.12735 294.249356,1435.19945 294.003088,1435.29277 C293.756821,1435.3861 293.430024,1435.50096 293.022388,1435.63674 C292.614751,1435.77251 292.096621,1435.91703 291.468311,1436.06997 C291.094696,1436.17172 290.784754,1436.24382 290.538799,1436.28627 C290.292531,1436.32872 290.09277,1436.37554 289.940141,1436.42642 C289.787199,1436.47729 289.681076,1436.53691 289.62146,1436.60464 C289.562156,1436.67268 289.532504,1436.77444 289.532504,1436.91052 C289.532504,1437.06315 289.58338,1437.16928 289.685446,1437.22889 C289.787199,1437.2882 289.999445,1437.3603 290.322183,1437.44551 C290.508835,1437.49639 290.648979,1437.59408 290.742305,1437.73828 C290.835943,1437.88249 290.88245,1438.184 290.88245,1438.64251 L290.88245,1450.7424 Z M297.96397,1450.53858 C297.96397,1450.77611 297.955543,1450.96713 297.938688,1451.11165 C297.921521,1451.25585 297.8875,1451.36634 297.836623,1451.44281 C297.785746,1451.51928 297.713645,1451.57859 297.620007,1451.62104 C297.526682,1451.66348 297.395276,1451.7103 297.22548,1451.76118 C297.038516,1451.82922 296.906799,1451.89696 296.83064,1451.965 C296.754169,1452.03304 296.715778,1452.16039 296.715778,1452.34704 C296.715778,1452.63576 296.928023,1452.78027 297.352827,1452.78027 C297.879072,1452.78027 298.392832,1452.76311 298.893795,1452.72908 C299.394757,1452.69537 299.823619,1452.67821 300.180379,1452.67821 C300.485951,1452.67821 300.884848,1452.69537 301.377383,1452.72908 C301.869918,1452.76311 302.379309,1452.78027 302.905866,1452.78027 C303.296335,1452.78027 303.491727,1452.63576 303.491727,1452.34704 C303.491727,1452.16039 303.453647,1452.03304 303.377176,1451.965 C303.300705,1451.89696 303.160561,1451.82922 302.956742,1451.76118 C302.8038,1451.7103 302.680823,1451.66348 302.587497,1451.62104 C302.493859,1451.57859 302.421758,1451.51928 302.370881,1451.44281 C302.320005,1451.36634 302.285983,1451.25585 302.269128,1451.11165 C302.251961,1450.96713 302.243534,1450.77611 302.243534,1450.53858 L302.243534,1441.52094 C302.243534,1441.24939 302.235106,1441.054 302.217939,1440.93508 C302.201084,1440.81616 302.133041,1440.75686 302.014121,1440.75686 C301.946389,1440.75686 301.810614,1440.79088 301.606796,1440.85861 C301.402978,1440.92665 301.148283,1441.01155 300.842399,1441.1133 C300.536827,1441.21537 300.188806,1441.32992 299.798024,1441.45727 C299.407554,1441.58493 298.99149,1441.70791 298.549831,1441.82683 C298.176216,1441.92858 297.866275,1442.00068 297.620007,1442.04313 C297.374052,1442.08589 297.174291,1442.1324 297.021661,1442.18327 C296.868719,1442.23415 296.762597,1442.29377 296.70298,1442.36181 C296.643676,1442.42954 296.614024,1442.53161 296.614024,1442.66738 C296.614024,1442.82032 296.664901,1442.92645 296.766654,1442.98575 C296.868719,1443.04505 297.080965,1443.11747 297.403704,1443.20237 C297.590355,1443.25324 297.7305,1443.35094 297.823826,1443.49514 C297.917464,1443.63965 297.96397,1443.94117 297.96397,1444.39937 L297.96397,1450.53858 Z M300.231256,1435 C299.908517,1435 299.607003,1435.06773 299.327026,1435.20382 C299.046736,1435.33959 298.804839,1435.51782 298.60102,1435.7388 C298.397202,1435.95948 298.23989,1436.21417 298.12971,1436.50289 C298.019217,1436.7916 297.96397,1437.08875 297.96397,1437.39432 C297.96397,1437.7002 298.019217,1437.99735 298.12971,1438.28607 C298.23989,1438.57447 298.397202,1438.82948 298.60102,1439.05015 C298.804839,1439.27082 299.046736,1439.44905 299.327026,1439.58513 C299.607003,1439.72091 299.908517,1439.78895 300.231256,1439.78895 C300.553682,1439.78895 300.855196,1439.72091 301.135485,1439.58513 C301.415775,1439.44905 301.657673,1439.27082 301.861491,1439.05015 C302.06531,1438.82948 302.222309,1438.57447 302.332802,1438.28607 C302.442982,1437.99735 302.498229,1437.7002 302.498229,1437.39432 C302.498229,1437.08875 302.442982,1436.7916 302.332802,1436.50289 C302.222309,1436.21417 302.06531,1435.95948 301.861491,1435.7388 C301.657673,1435.51782 301.415775,1435.33959 301.135485,1435.20382 C300.855196,1435.06773 300.553682,1435 300.231256,1435 Z M314.776339,1443.43147 C314.776339,1443.041 314.716723,1442.68424 314.597803,1442.36181 C314.478883,1442.03907 314.25821,1441.75878 313.935783,1441.52094 C313.613045,1441.28341 313.162959,1441.09645 312.585525,1440.96068 C312.008092,1440.8249 311.269289,1440.75686 310.369429,1440.75686 C309.503278,1440.75686 308.701114,1440.86735 307.962311,1441.08802 C307.223508,1441.3087 306.586771,1441.60178 306.051786,1441.96697 C305.516802,1442.33185 305.100737,1442.74791 304.803593,1443.21516 C304.506449,1443.6821 304.357877,1444.1531 304.357877,1444.62878 C304.357877,1445.07044 304.455572,1445.37601 304.650651,1445.54581 C304.846042,1445.71561 305.164411,1445.8005 305.60607,1445.8005 C305.826743,1445.8005 306.081438,1445.75369 306.370155,1445.66036 C306.658872,1445.56703 306.943219,1445.41846 307.223508,1445.21464 C307.503797,1445.01083 307.77129,1444.73928 308.025985,1444.39937 C308.28068,1444.05978 308.492926,1443.64371 308.662722,1443.15118 C308.798497,1442.77756 308.955809,1442.45514 309.134033,1442.18327 C309.312257,1441.91172 309.528873,1441.77595 309.783568,1441.77595 C310.258936,1441.77595 310.496776,1442.11554 310.496776,1442.79473 L310.496776,1444.73054 C310.496776,1444.96838 310.437472,1445.15503 310.318552,1445.29111 C310.199632,1445.42689 310.025466,1445.54987 309.796365,1445.66036 C309.566952,1445.77085 309.286663,1445.8854 308.955809,1446.00432 C308.624643,1446.12324 308.246658,1446.27587 307.822166,1446.46284 C307.125813,1446.78558 306.552749,1447.11237 306.102663,1447.44354 C305.652577,1447.7747 305.300186,1448.11024 305.045491,1448.44983 C304.790796,1448.78943 304.612572,1449.13339 304.510507,1449.48141 C304.408753,1449.82943 304.357877,1450.16497 304.357877,1450.4877 C304.357877,1451.30267 304.608202,1451.93972 305.109165,1452.39792 C305.610127,1452.85643 306.251235,1453.08584 307.032487,1453.08584 C307.507855,1453.08584 307.949514,1453.00095 308.357151,1452.83115 C308.764475,1452.66135 309.138403,1452.47439 309.477996,1452.27057 C309.817589,1452.06675 310.101936,1451.8801 310.331349,1451.7103 C310.56045,1451.54051 310.726189,1451.45561 310.827942,1451.45561 C310.929695,1451.45561 311.035818,1451.54051 311.146311,1451.7103 C311.256804,1451.8801 311.401006,1452.06675 311.579542,1452.27057 C311.757766,1452.47439 311.991237,1452.66135 312.279953,1452.83115 C312.56867,1453.00095 312.942285,1453.08584 313.400799,1453.08584 C313.842145,1453.08584 314.249782,1452.99658 314.623397,1452.81835 C314.997013,1452.64013 315.315381,1452.41914 315.578504,1452.15602 C315.841938,1451.8929 316.049814,1451.61261 316.202756,1451.31546 C316.355698,1451.01832 316.431857,1450.7424 316.431857,1450.4877 C316.431857,1450.18182 316.355698,1450.02919 316.202756,1450.02919 C316.15188,1450.02919 316.105061,1450.05447 316.062612,1450.10535 C316.020162,1450.15654 315.973656,1450.20742 315.922467,1450.25829 C315.87159,1450.30917 315.795119,1450.36005 315.693366,1450.41123 C315.591301,1450.46211 315.455526,1450.4877 315.285729,1450.4877 C315.081911,1450.4877 314.946136,1450.43246 314.878092,1450.32197 C314.810049,1450.21147 314.776339,1450.06321 314.776339,1449.87625 L314.776339,1443.43147 Z M308.63744,1449.72331 C308.63744,1449.28165 308.701114,1448.8659 308.828461,1448.47511 C308.955809,1448.08464 309.108439,1447.74505 309.286663,1447.45633 C309.465199,1447.16762 309.65185,1446.93821 309.847241,1446.76841 C310.042632,1446.59861 310.199632,1446.51371 310.318552,1446.51371 C310.369429,1446.51371 310.411878,1446.53088 310.4459,1446.56459 C310.479921,1446.59861 310.496776,1446.68351 310.496776,1446.81929 L310.496776,1449.82506 C310.496776,1450.19899 310.40345,1450.47897 310.216487,1450.66593 C310.029835,1450.85258 309.791995,1450.94591 309.503278,1450.94591 C309.180852,1450.94591 308.955809,1450.8401 308.828461,1450.62754 C308.701114,1450.41529 308.63744,1450.11378 308.63744,1449.72331 Z M317.909463,1450.7424 C317.909463,1451.03112 317.875441,1451.26459 317.807397,1451.44281 C317.739666,1451.62104 317.561442,1451.72716 317.272725,1451.76118 C317.136638,1451.7952 317.005233,1451.85045 316.877573,1451.92692 C316.750538,1452.00308 316.686552,1452.1348 316.686552,1452.32145 C316.686552,1452.45753 316.750538,1452.56771 316.877573,1452.65292 C317.005233,1452.73782 317.136638,1452.78027 317.272725,1452.78027 C317.442522,1452.78027 317.599521,1452.7759 317.743724,1452.76748 C317.888238,1452.75905 318.058035,1452.74625 318.253114,1452.72908 C318.448505,1452.71223 318.699142,1452.69943 319.004714,1452.691 C319.310285,1452.68258 319.717922,1452.67821 320.227312,1452.67821 C320.889956,1452.67821 321.373752,1452.69537 321.679324,1452.72908 C321.985207,1452.76311 322.231475,1452.78027 322.418127,1452.78027 C322.553901,1452.78027 322.672822,1452.75031 322.774887,1452.691 C322.87664,1452.63139 322.927517,1452.48313 322.927517,1452.24529 C322.927517,1452.12637 322.889437,1452.03304 322.812966,1451.965 C322.736495,1451.89696 322.651597,1451.83328 322.558271,1451.77398 C322.464945,1451.71467 322.380047,1451.64663 322.303576,1451.57016 C322.227105,1451.49369 322.189026,1451.39599 322.189026,1451.27707 L322.189026,1444.60319 C322.189026,1444.24674 322.346025,1443.9496 322.660024,1443.71176 C322.974335,1443.47392 323.326726,1443.355 323.717196,1443.355 C324.039935,1443.355 324.29026,1443.49951 324.468796,1443.78823 C324.64702,1444.07694 324.736288,1444.47584 324.736288,1444.98523 L324.736288,1451.37914 C324.736288,1451.48089 324.697897,1451.56579 324.621738,1451.63383 C324.545267,1451.70188 324.455999,1451.76118 324.354246,1451.81206 C324.25218,1451.86325 324.163224,1451.92255 324.086753,1451.99059 C324.010283,1452.05832 323.971891,1452.15196 323.971891,1452.27057 C323.971891,1452.61016 324.158855,1452.78027 324.53247,1452.78027 C324.821187,1452.78027 325.16515,1452.76311 325.564047,1452.72908 C325.963257,1452.69537 326.383378,1452.67821 326.825037,1452.67821 C326.994834,1452.67821 327.198652,1452.68258 327.436492,1452.691 C327.674021,1452.69943 327.907491,1452.71223 328.136904,1452.72908 C328.366004,1452.74625 328.58262,1452.75905 328.786439,1452.76748 C328.990257,1452.7759 329.160054,1452.78027 329.295829,1452.78027 C329.669444,1452.78027 329.911654,1452.74188 330.021834,1452.66541 C330.132327,1452.58894 330.187573,1452.45753 330.187573,1452.27057 C330.187573,1452.08392 330.127957,1451.965 330.009037,1451.91412 C329.890117,1451.86325 329.754342,1451.82485 329.601712,1451.79926 C329.44877,1451.77398 329.312996,1451.72716 329.194075,1451.65943 C329.075155,1451.59138 329.015539,1451.43001 329.015539,1451.17532 L329.015539,1444.45056 C329.015539,1443.97488 328.960605,1443.52073 328.850112,1443.0875 C328.73962,1442.65458 328.561396,1442.2766 328.315128,1441.95417 C328.06886,1441.63143 327.746434,1441.37674 327.347224,1441.18978 C326.948015,1441.00312 326.451422,1440.9098 325.857134,1440.9098 C325.330577,1440.9098 324.880491,1441.01155 324.506875,1441.21537 C324.13326,1441.41919 323.802094,1441.63986 323.513378,1441.8777 C323.224661,1442.11554 322.987133,1442.33622 322.800169,1442.54003 C322.613518,1442.74385 322.452148,1442.84561 322.316373,1442.84561 C322.231475,1442.84561 322.189026,1442.42111 322.189026,1441.57213 C322.189026,1441.38517 322.180286,1441.20257 322.163431,1441.02435 C322.146577,1440.84612 322.078533,1440.75686 321.959613,1440.75686 C321.89157,1440.75686 321.789816,1440.78214 321.654041,1440.83333 C321.517954,1440.8842 321.322875,1440.95631 321.06818,1441.04963 C320.813485,1441.14327 320.47795,1441.25782 320.061885,1441.39359 C319.645821,1441.52968 319.123634,1441.67388 318.495324,1441.82683 C318.121709,1441.92858 317.811767,1442.00068 317.5655,1442.04313 C317.319232,1442.08589 317.119783,1442.1324 316.966841,1442.18327 C316.8139,1442.23415 316.708089,1442.29377 316.648473,1442.36181 C316.589169,1442.42954 316.559204,1442.53161 316.559204,1442.66738 C316.559204,1442.82032 316.610393,1442.92645 316.712146,1442.98575 C316.8139,1443.04505 317.026458,1443.11747 317.348884,1443.20237 C317.535848,1443.25324 317.675992,1443.35094 317.769318,1443.49514 C317.862644,1443.63965 317.909463,1443.94117 317.909463,1444.39937 L317.909463,1450.7424 Z M335.638546,1446.30989 C335.638546,1445.68158 335.689423,1445.10009 335.791488,1444.56511 C335.893241,1444.03012 336.020901,1443.57161 336.173531,1443.18957 C336.326473,1442.80753 336.504697,1442.51038 336.708515,1442.29782 C336.912334,1442.08589 337.116152,1441.97946 337.31997,1441.97946 C337.676419,1441.97946 337.935483,1442.16205 338.096853,1442.52724 C338.258222,1442.89242 338.402424,1443.29975 338.529772,1443.74984 C338.657119,1444.19992 338.801634,1444.60756 338.962691,1444.97275 C339.124372,1445.33762 339.374698,1445.52022 339.714291,1445.52022 C340.053884,1445.52022 340.283297,1445.40567 340.402217,1445.17656 C340.521137,1444.94715 340.580441,1444.45899 340.580441,1443.71176 C340.580441,1443.25324 340.563274,1442.884 340.529565,1442.60371 C340.495543,1442.32342 340.453094,1442.12397 340.402217,1442.00505 C340.317007,1441.80123 340.164377,1441.62301 339.943704,1441.47007 C339.722718,1441.31712 339.463654,1441.18978 339.166822,1441.08802 C338.869365,1440.98627 338.550996,1440.90543 338.211403,1440.84612 C337.87181,1440.78651 337.540644,1440.75686 337.217905,1440.75686 C336.368922,1440.75686 335.574873,1440.91386 334.83607,1441.22817 C334.097579,1441.54217 333.452102,1441.98819 332.900263,1442.56532 C332.348423,1443.14275 331.911135,1443.8391 331.588396,1444.65407 C331.265657,1445.46934 331.104288,1446.36951 331.104288,1447.35427 C331.104288,1448.20357 331.231636,1448.98045 331.486643,1449.68523 C331.741338,1450.39001 332.102156,1450.99273 332.569097,1451.49369 C333.036038,1451.99465 333.600674,1452.38543 334.263006,1452.66541 C334.925338,1452.9457 335.672568,1453.08584 336.504697,1453.08584 C337.285949,1453.08584 337.952338,1452.95413 338.50449,1452.691 C339.056329,1452.42788 339.497675,1452.10514 339.828841,1451.7231 C340.160007,1451.34106 340.402217,1450.94185 340.554847,1450.52578 C340.707789,1450.10972 340.78426,1449.75733 340.78426,1449.46861 C340.78426,1449.38371 340.758665,1449.27759 340.707789,1449.15024 C340.656912,1449.0229 340.537992,1448.95922 340.351029,1448.95922 C340.198399,1448.95922 340.062312,1449.06098 339.943704,1449.26479 C339.824784,1449.46861 339.689009,1449.69803 339.536067,1449.95272 C339.383125,1450.20742 339.200531,1450.43652 338.988285,1450.64033 C338.776039,1450.84415 338.491692,1450.94591 338.134932,1450.94591 C337.829361,1450.94591 337.527847,1450.86132 337.230702,1450.69121 C336.933558,1450.52141 336.666066,1450.25392 336.428226,1449.88905 C336.190386,1449.52386 335.999364,1449.04818 335.855162,1448.46232 C335.71096,1447.87646 335.638546,1447.15919 335.638546,1446.30989 Z M350.896839,1446.46284 C351.44025,1446.46284 351.775786,1446.38231 351.903134,1446.22094 C352.030481,1446.05957 352.094155,1445.70718 352.094155,1445.16377 C352.094155,1444.48427 351.983662,1443.87313 351.762989,1443.32971 C351.542316,1442.7863 351.232374,1442.32342 350.833477,1441.94138 C350.434267,1441.55933 349.95016,1441.26625 349.381466,1441.06243 C348.812459,1440.85861 348.188207,1440.75686 347.50902,1440.75686 C346.660037,1440.75686 345.900009,1440.90543 345.22925,1441.20257 C344.558491,1441.49972 343.981057,1441.92858 343.496949,1442.48916 C343.013153,1443.04942 342.643596,1443.72861 342.388901,1444.52703 C342.134206,1445.32514 342.006858,1446.21657 342.006858,1447.20164 C342.006858,1447.98258 342.134206,1448.72575 342.388901,1449.43053 C342.643596,1450.135 343.004414,1450.75925 343.471667,1451.30267 C343.938608,1451.84608 344.498874,1452.279 345.152779,1452.60174 C345.806683,1452.92447 346.532689,1453.08584 347.330796,1453.08584 C348.264678,1453.08584 349.033133,1452.92884 349.636161,1452.61453 C350.238876,1452.30022 350.705817,1451.93972 351.036983,1451.53208 C351.368149,1451.12444 351.597562,1450.7296 351.724909,1450.34756 C351.852257,1449.96552 351.915931,1449.71488 351.915931,1449.59596 C351.915931,1449.18832 351.746134,1448.9845 351.406541,1448.9845 C351.253599,1448.9845 351.121882,1449.08657 351.011701,1449.29039 C350.901208,1449.49421 350.765433,1449.71925 350.604064,1449.96552 C350.442695,1450.21147 350.230449,1450.43652 349.967327,1450.64033 C349.703892,1450.84415 349.351501,1450.94591 348.910155,1450.94591 C348.502518,1450.94591 348.150127,1450.81887 347.852983,1450.56386 C347.555839,1450.30917 347.309571,1449.99923 347.11418,1449.63435 C346.919101,1449.26916 346.774587,1448.87838 346.681261,1448.46232 C346.587935,1448.04625 346.541117,1447.67701 346.541117,1447.35427 C346.541117,1447.06555 346.596363,1446.84488 346.706543,1446.69194 C346.817036,1446.53931 347.016485,1446.46284 347.305202,1446.46284 L350.896839,1446.46284 Z M348.782807,1443.1259 C348.782807,1443.38059 348.744416,1443.64371 348.667945,1443.91557 C348.591786,1444.18712 348.476924,1444.43776 348.324294,1444.66686 C348.171352,1444.89628 347.984701,1445.08293 347.763715,1445.22744 C347.543042,1445.37164 347.288347,1445.44374 346.99963,1445.44374 C346.694058,1445.44374 346.541117,1445.14691 346.541117,1444.55231 C346.541117,1444.36566 346.566399,1444.12782 346.617587,1443.8391 C346.668464,1443.55039 346.748993,1443.26604 346.859485,1442.98575 C346.969978,1442.70546 347.11855,1442.46793 347.305202,1442.27254 C347.492165,1442.07715 347.721266,1441.97946 347.993128,1441.97946 C348.264678,1441.97946 348.464126,1442.08995 348.591786,1442.31062 C348.719134,1442.53161 348.782807,1442.80316 348.782807,1443.1259 Z M296.30658,1459.43075 C296.30658,1458.51372 296.344659,1457.74526 296.42113,1457.12538 C296.497601,1456.5055 296.607782,1456.00454 296.752296,1455.62249 C296.896499,1455.24045 297.062238,1454.96453 297.248889,1454.79474 C297.435541,1454.62494 297.648099,1454.54004 297.885627,1454.54004 C298.157489,1454.54004 298.429039,1454.68424 298.700901,1454.97296 C298.972763,1455.26168 299.21466,1455.77107 299.426906,1456.50144 C299.639152,1457.2315 299.808949,1458.21658 299.936296,1459.45634 C300.063644,1460.69579 300.127318,1462.26673 300.127318,1464.16882 C300.127318,1465.08585 300.089238,1465.85836 300.012767,1466.48667 C299.936296,1467.1153 299.826116,1467.62032 299.681601,1468.00236 C299.537399,1468.3844 299.36729,1468.65626 299.172211,1468.81763 C298.97682,1468.979 298.768944,1469.05953 298.547959,1469.05953 C298.259242,1469.05953 297.983322,1468.91533 297.7202,1468.62661 C297.456765,1468.33789 297.219237,1467.8285 297.006991,1467.09813 C296.794746,1466.36775 296.624949,1465.38299 296.497601,1464.14323 C296.369942,1462.90346 296.30658,1461.33284 296.30658,1459.43075 Z M298.267669,1453.41919 C297.198013,1453.41919 296.217312,1453.6355 295.325567,1454.06873 C294.434135,1454.50165 293.67005,1455.08751 293.033312,1455.82631 C292.396262,1456.56512 291.899669,1457.41847 291.542909,1458.38637 C291.186461,1459.35428 291.007925,1460.37337 291.007925,1461.44302 C291.007925,1462.52985 291.169294,1463.59576 291.492032,1464.64013 C291.814771,1465.68451 292.28577,1466.61839 292.905652,1467.44209 C293.525535,1468.26579 294.277135,1468.92812 295.16014,1469.42909 C296.043145,1469.92974 297.045071,1470.18037 298.165916,1470.18037 C299.235885,1470.18037 300.216586,1469.96376 301.108018,1469.53084 C301.999763,1469.09761 302.763848,1468.51206 303.400586,1467.77326 C304.037323,1467.03445 304.534228,1466.1811 304.890989,1465.2132 C305.247437,1464.24529 305.425661,1463.2262 305.425661,1462.15623 C305.425661,1461.06941 305.264292,1460.00381 304.941865,1458.95944 C304.619127,1457.91506 304.147816,1456.98118 303.527933,1456.15748 C302.908363,1455.33378 302.156763,1454.67145 301.273445,1454.17048 C300.390752,1453.66952 299.388515,1453.41919 298.267669,1453.41919 Z M307.540004,1467.83693 C307.540004,1468.12565 307.505982,1468.35912 307.438251,1468.53734 C307.370207,1468.71588 307.191983,1468.82169 306.903267,1468.85571 C306.767179,1468.88973 306.635774,1468.94498 306.508427,1469.02145 C306.381079,1469.09761 306.317406,1469.22933 306.317406,1469.41629 C306.317406,1469.55206 306.381079,1469.66256 306.508427,1469.74746 C306.635774,1469.83235 306.767179,1469.8748 306.903267,1469.8748 C307.073063,1469.8748 307.230063,1469.87043 307.374577,1469.86201 C307.51878,1469.85358 307.688576,1469.84078 307.883967,1469.82393 C308.079046,1469.80676 308.329684,1469.79396 308.635255,1469.78554 C308.941139,1469.77711 309.348776,1469.77274 309.858166,1469.77274 C310.520498,1469.77274 311.004293,1469.7899 311.310177,1469.82393 C311.615749,1469.85764 311.862016,1469.8748 312.048668,1469.8748 C312.184443,1469.8748 312.303363,1469.84515 312.405428,1469.78554 C312.507181,1469.72623 312.55837,1469.57766 312.55837,1469.33982 C312.55837,1469.2209 312.519979,1469.12757 312.443508,1469.05953 C312.367349,1468.9918 312.282138,1468.92812 312.188813,1468.86851 C312.095487,1468.8092 312.010589,1468.74116 311.934118,1468.66469 C311.857647,1468.58822 311.819567,1468.49084 311.819567,1468.37192 L311.819567,1461.69772 C311.819567,1461.34127 311.976567,1461.04413 312.290878,1460.80629 C312.604877,1460.56845 312.957267,1460.44953 313.347737,1460.44953 C313.670476,1460.44953 313.921113,1460.59404 314.099337,1460.88276 C314.277562,1461.17147 314.36683,1461.57037 314.36683,1462.08007 L314.36683,1468.47367 C314.36683,1468.57542 314.32875,1468.66063 314.252279,1468.72836 C314.175808,1468.79641 314.08654,1468.85571 313.984787,1468.90659 C313.882722,1468.95778 313.793766,1469.01708 313.717295,1469.08512 C313.640824,1469.15286 313.602745,1469.24649 313.602745,1469.3651 C313.602745,1469.70501 313.789396,1469.8748 314.163011,1469.8748 C314.451728,1469.8748 314.795691,1469.85764 315.194588,1469.82393 C315.593798,1469.7899 316.01392,1469.77274 316.455579,1469.77274 C316.625375,1469.77274 316.829194,1469.77711 317.067034,1469.78554 C317.304874,1469.79396 317.538345,1469.80676 317.767445,1469.82393 C317.996546,1469.84078 318.213162,1469.85358 318.41698,1469.86201 C318.620798,1469.87043 318.790595,1469.8748 318.92637,1469.8748 C319.299985,1469.8748 319.542195,1469.83641 319.652376,1469.76025 C319.762868,1469.68378 319.818115,1469.55206 319.818115,1469.3651 C319.818115,1469.17845 319.758499,1469.05953 319.639579,1469.00865 C319.520971,1468.95778 319.384884,1468.91938 319.232254,1468.8941 C319.079312,1468.86851 318.943537,1468.82169 318.824617,1468.75396 C318.705697,1468.68591 318.646393,1468.52455 318.646393,1468.26985 L318.646393,1461.54509 C318.646393,1461.06941 318.591146,1460.61527 318.480654,1460.18235 C318.370161,1459.74912 318.191937,1459.37144 317.945669,1459.0487 C317.699402,1458.72597 317.376975,1458.47127 316.977766,1458.28462 C316.578556,1458.09766 316.081963,1458.00433 315.487675,1458.00433 C314.961118,1458.00433 314.511032,1458.10608 314.137417,1458.3099 C313.764114,1458.51372 313.432948,1458.73439 313.144231,1458.97223 C312.855514,1459.21007 312.617674,1459.43075 312.431023,1459.63456 C312.244059,1459.83838 312.08269,1459.94014 311.946915,1459.94014 C311.862016,1459.94014 311.819567,1459.51564 311.819567,1458.66666 C311.819567,1458.4797 311.81114,1458.2971 311.793973,1458.11888 C311.777118,1457.94066 311.709075,1457.85139 311.590154,1457.85139 C311.522423,1457.85139 311.420358,1457.87698 311.284583,1457.92786 C311.148808,1457.97874 310.953417,1458.05115 310.698722,1458.14447 C310.444027,1458.2378 310.108491,1458.35235 309.692427,1458.48813 C309.276362,1458.62421 308.754175,1458.76841 308.125865,1458.92136 C307.75225,1459.02311 307.442309,1459.09521 307.196041,1459.13797 C306.949773,1459.18042 306.750325,1459.22693 306.597383,1459.2778 C306.444753,1459.32868 306.33863,1459.3883 306.279014,1459.45634 C306.21971,1459.52407 306.190058,1459.62614 306.190058,1459.76191 C306.190058,1459.91485 306.240935,1460.02098 306.342688,1460.08028 C306.444753,1460.1399 306.656999,1460.212 306.979425,1460.2969 C307.166389,1460.34777 307.306534,1460.44547 307.399859,1460.58998 C307.493497,1460.73419 307.540004,1461.0357 307.540004,1461.49421 L307.540004,1467.83693 Z M329.675998,1463.55737 C330.21941,1463.55737 330.554946,1463.47684 330.682293,1463.31547 C330.809641,1463.1541 330.873315,1462.80171 330.873315,1462.2583 C330.873315,1461.57911 330.762822,1460.96766 330.542149,1460.42424 C330.321476,1459.88083 330.011534,1459.41795 329.612325,1459.03591 C329.213427,1458.65386 328.729319,1458.36078 328.160625,1458.15696 C327.591619,1457.95345 326.967367,1457.85139 326.28818,1457.85139 C325.439197,1457.85139 324.679169,1457.99996 324.00841,1458.2971 C323.33765,1458.59425 322.760217,1459.02311 322.276109,1459.58369 C321.792313,1460.14396 321.422756,1460.82345 321.168061,1461.62156 C320.913366,1462.41967 320.786018,1463.3111 320.786018,1464.29617 C320.786018,1465.07742 320.913366,1465.82028 321.168061,1466.52506 C321.422756,1467.22985 321.783574,1467.85379 322.250827,1468.3972 C322.717768,1468.94061 323.278034,1469.37384 323.931939,1469.69627 C324.585843,1470.01901 325.311537,1470.18037 326.109956,1470.18037 C327.043838,1470.18037 327.812293,1470.02338 328.41532,1469.70906 C329.018036,1469.39507 329.484977,1469.03425 329.816143,1468.62661 C330.147309,1468.21897 330.376722,1467.82413 330.504069,1467.44209 C330.631417,1467.06005 330.695091,1466.80941 330.695091,1466.69049 C330.695091,1466.28317 330.525294,1466.07904 330.185388,1466.07904 C330.032759,1466.07904 329.901041,1466.1811 329.790861,1466.38492 C329.680368,1466.58874 329.544593,1466.81378 329.383224,1467.06005 C329.221855,1467.30632 329.009609,1467.53105 328.746174,1467.73487 C328.483052,1467.93868 328.130661,1468.04075 327.689315,1468.04075 C327.281678,1468.04075 326.929287,1467.9134 326.632143,1467.65871 C326.334999,1467.40401 326.088731,1467.09407 325.89334,1466.72888 C325.697949,1466.3637 325.553747,1465.97323 325.460421,1465.55685 C325.366783,1465.1411 325.320276,1464.77154 325.320276,1464.4488 C325.320276,1464.16008 325.375523,1463.93941 325.485703,1463.78678 C325.596196,1463.63384 325.795645,1463.55737 326.084362,1463.55737 L329.675998,1463.55737 Z M327.561967,1460.22043 C327.561967,1460.47512 327.523576,1460.73824 327.447105,1461.01011 C327.370946,1461.28166 327.256084,1461.53229 327.103454,1461.76171 C326.950512,1461.99081 326.763548,1462.17777 326.542875,1462.32197 C326.322202,1462.46617 326.067507,1462.53828 325.77879,1462.53828 C325.472906,1462.53828 325.320276,1462.24144 325.320276,1461.64684 C325.320276,1461.46019 325.345559,1461.22235 325.396747,1460.93363 C325.447624,1460.64492 325.528153,1460.36057 325.638645,1460.08028 C325.749138,1459.79999 325.89771,1459.56246 326.084362,1459.36707 C326.271325,1459.17199 326.500426,1459.0743 326.772288,1459.0743 C327.043838,1459.0743 327.243286,1459.18448 327.370946,1459.40546 C327.497981,1459.62614 327.561967,1459.89769 327.561967,1460.22043 Z M311.544896,1475.6997 C334.606345,1473.59379 352.527386,1463.33076 351.563852,1452.78027 C351.542003,1452.54056 351.507357,1452.30397 351.466469,1452.06831 C351.087236,1452.5003 350.614364,1452.84488 350.112465,1453.12361 C350.482959,1459.28186 342.419801,1465.38768 330.161979,1469.25492 C329.754966,1469.69002 329.252755,1470.03274 328.726822,1470.3071 C327.928716,1470.72285 327.000452,1470.85457 326.109956,1470.85457 C325.682655,1470.85457 325.261597,1470.81274 324.851463,1470.7241 C320.646186,1471.73539 316.082276,1472.49448 311.292386,1472.93208 C289.039032,1474.96402 270.324566,1469.29581 269.500865,1460.27349 C269.287995,1457.94315 270.291793,1455.61688 272.278788,1453.41264 C272.2379,1453.40796 272.197636,1453.40265 272.157059,1453.39703 C271.930143,1453.36582 271.701043,1453.3524 271.471942,1453.3524 C271.237847,1453.3524 271.003753,1453.36645 270.771531,1453.39735 C270.541806,1453.42793 270.310208,1453.44604 270.07861,1453.45197 C268.55481,1455.69709 267.821313,1458.04491 268.036993,1460.40739 C269.000526,1470.95757 288.483447,1477.80531 311.544896,1475.6997 Z M337.193871,1440.08266 C329.418806,1437.53509 319.152349,1436.4748 308.055949,1437.48796 C306.373588,1437.64152 304.719943,1437.83941 303.097823,1438.07694 C303.063801,1438.22926 303.018855,1438.37939 302.96236,1438.52703 C302.823152,1438.89065 302.621206,1439.2212 302.356835,1439.50742 C302.092777,1439.79364 301.780026,1440.0218 301.429508,1440.19191 C301.387059,1440.2122 301.344298,1440.23155 301.301224,1440.24996 C301.332125,1440.23966 301.362713,1440.22936 301.393614,1440.21906 C301.583074,1440.15601 301.813736,1440.08266 302.014121,1440.08266 C302.469513,1440.08266 302.820967,1440.38948 302.885265,1440.83988 C302.888074,1440.85955 302.890883,1440.87921 302.893068,1440.89919 C304.660015,1440.63981 306.467226,1440.42351 308.308459,1440.25527 C308.443922,1440.2431 308.57876,1440.23217 308.713911,1440.22031 C309.25982,1440.12543 309.814156,1440.08266 310.369429,1440.08266 L310.452142,1440.08298 C314.9761,1439.76648 319.330574,1439.76991 323.391648,1440.05488 C324.14356,1440.10763 324.885797,1440.17006 325.616796,1440.24185 C325.696701,1440.23748 325.776917,1440.23561 325.857134,1440.23561 C326.306283,1440.23561 326.765421,1440.28336 327.198028,1440.41383 C329.303008,1440.6654 331.308731,1440.99688 333.195222,1441.40265 C333.617217,1441.08365 334.077291,1440.81835 334.572323,1440.60766 C335.406324,1440.25308 336.288705,1440.08579 337.193871,1440.08266 Z" id="Alliance_One-Logo"></path>
        </g>
    </g>
</svg>