<?xml version="1.0" encoding="UTF-8"?>
<svg width="86px" height="52px" viewBox="0 0 86 52" version="1.1" xmlns="http://www.w3.org/2000/svg" xmlns:xlink="http://www.w3.org/1999/xlink">
    <!-- Generator: Sketch 50.2 (55047) - http://www.bohemiancoding.com/sketch -->
    <title>Money Pass Logo</title>
    <desc>Created with Sketch.</desc>
    <defs>
        <polygon id="path-1" points="0 11 58 11 58 52 0 52"></polygon>
    </defs>
    <g id="ATM-Locator" stroke="none" stroke-width="1" fill="none" fill-rule="evenodd">
        <g id="2.0-ATM-Locator" transform="translate(-537.000000, -1430.000000)">
            <g id="Money-Pass-Logo" transform="translate(537.000000, 1430.000000)">
                <polygon id="Fill-1" fill="#009D57" points="14 25 17.1864009 15 22.3113077 15 22.6057764 21.2371429 26.8779708 15 32 15 28.8135991 25 25.0018118 25 25.975381 21.9447619 26.5269104 20.3885714 27.3172759 18.5838095 27.280827 18.5838095 22.8820207 25 19.9334967 25 19.6255995 18.5838095 19.5872322 18.5838095 19.2985186 20.0561905 18.8927848 21.6104762 17.8117873 25"></polygon>
                <path d="M38.4245794,17 C34.9947485,17 32.091947,18.7457765 31.2411576,21.4313047 C30.318626,24.3394057 32.1029843,26 35.5659271,26 C38.8283595,26 41.8764849,24.3613882 42.7990165,21.4523713 C43.5182785,19.1964177 42.3630445,17 38.4245794,17 M37.7292315,19.0910849 C39.3342342,19.0544474 39.55314,20.2891309 39.1833916,21.4523713 C38.7363822,22.8656625 37.7917761,23.9116629 36.2300027,23.9116629 C34.4971516,23.9116629 34.5026703,22.5460004 34.8485047,21.4523713 C35.1915797,20.3724812 36.0911171,19.0910849 37.7292315,19.0910849" id="Fill-2" fill="#009D57"></path>
                <polygon id="Fill-4" fill="#009D57" points="51.9633911 21.9117206 52.4682081 19.863724 53.371869 17 57 17 54.1541426 26 50.6088632 26 48.0327553 21.09985 47.5279383 23.1478466 46.628131 26 43 26 45.844894 17 49.3959538 17"></polygon>
                <polygon id="Fill-6" fill="#009D57" points="55 26 57.7838793 17 67 17 66.352345 19.1010285 60.8411501 19.1010285 60.4414329 20.3872938 65.1088852 20.3872938 64.4584021 22.4854296 59.7975489 22.4854296 59.3563516 23.8989715 65.0862597 23.8989715 64.4395475 26"></polygon>
                <polygon id="Fill-8" fill="#009D57" points="71.0814089 26 67.4098437 26 68.4128761 22.7245554 66 17 70.1026359 17 71.0963378 20.0498179 73.9580126 17 78 17 72.096571 22.6753803"></polygon>
                <path d="M14,38 L17.40714,27 L24.0803572,27 C28.0602128,27 29.5319694,28.4501484 28.8322972,30.7108434 C28.09877,33.0819801 25.8643331,34.5772656 21.885418,34.5772656 L19.5945559,34.5772656 L18.5365839,38 L14,38 Z M22.2756921,32.0111751 C23.3327237,32.0111751 24.2063734,31.6740877 24.4969631,30.7281299 C24.8204674,29.702462 23.4023147,29.5660904 22.4383847,29.5660904 L21.1509503,29.5660904 L20.3920317,32.0111751 L22.2756921,32.0111751 Z" id="Fill-10" fill="#004FA2"></path>
                <path d="M28.5805107,38 L29.5781006,36.5495781 L34.2406853,36.5495781 L34.3354612,38 L39,38 L37.3927176,27 L32.6324257,27 L24,38 L28.5805107,38 Z M34.1595883,34.2579114 L31.2059015,34.2579114 L33.9123893,30.3146976 L34.1595883,34.2579114 Z" id="Fill-12" fill="#004FA2"></path>
                <path d="M48.5680723,30.3094582 C48.6086536,29.9467401 48.4308688,29.7309458 48.1361711,29.600551 C47.848237,29.4674013 47.4549847,29.4104683 47.0066578,29.4104683 C45.9863275,29.4104683 45.4626352,29.6262626 45.3341277,30.0055096 C44.808503,31.5711662 53.2610119,30.5996327 51.9962275,34.4022039 C51.1903985,36.8264463 48.0704681,38 44.1852899,38 C40.4556735,38 38.5551151,36.3930211 39.0884696,34.5041322 L43.5243942,34.5041322 C43.4954075,34.8833792 43.6809221,35.1570248 44.01137,35.3333333 C44.3273246,35.5068871 44.7882124,35.5922865 45.2404042,35.5922865 C46.3960056,35.5922865 47.2569092,35.3168044 47.4192345,34.8191001 C47.9487241,33.241506 39.4614312,34.3296602 40.7890201,30.3397612 C41.5262474,28.1184573 44.4925485,27 48.0260219,27 C51.9488826,27 53.239755,28.4775023 52.9643818,30.3094582 L48.5680723,30.3094582" id="Fill-14" fill="#004FA2"></path>
                <path d="M60.5689031,30.3094582 C60.6065892,29.9467401 60.4297546,29.7309458 60.1359967,29.600551 C59.8490029,29.4674013 59.4586141,29.4104683 59.0034826,29.4104683 C57.982094,29.4104683 57.4602872,29.6262626 57.334667,30.0055096 C56.8118938,31.5711662 65.2622658,30.5996327 63.9954347,34.4022039 C63.1885667,36.8264463 60.0702877,38 56.1857256,38 C52.4567393,38 50.5550432,36.3930211 51.0884458,34.5041322 L55.5247703,34.5041322 C55.495781,34.8833792 55.6764808,35.1570248 56.01179,35.3333333 C56.327773,35.5068871 56.7887024,35.5922865 57.240935,35.5922865 C58.3995395,35.5922865 59.2585882,35.3168044 59.4199618,34.8191001 C59.9456338,33.241506 51.461441,34.3296602 52.7881833,30.3397612 C53.5264433,28.1184573 56.4920456,27 60.0268038,27 C63.946153,27 65.2390744,28.4775023 64.9646426,30.3094582 L60.5689031,30.3094582" id="Fill-16" fill="#004FA2"></path>
                <path d="M85.7508935,21.0927265 C83.0959262,9.44287328 59.9210695,0 33.9888091,0 C31.9465982,0 29.9481556,0.0629771855 28,0.177817935 L30.9464456,5.14653264 L36.6409827,15.0228371 C36.6409827,15.0228371 35.0476298,11.3803479 35.3465581,10.3365936 C35.7823787,8.81587983 39.5334164,8.42042015 40.7989725,8.33058505 C41.5905271,8.30187486 42.3886004,8.28613056 43.1913299,8.28613056 C61.9083372,8.28613056 77.0829048,16.0489948 77.0829048,25.6252315 C77.0829048,32.3082223 69.6888535,38.1058279 58.8631801,41 C76.5046043,38.1187938 87.8489788,30.297583 85.7508935,21.0927265" id="Fill-18" fill="#009D57"></path>
                <mask id="mask-2" fill="white">
                    <use xlink:href="#path-1"></use>
                </mask>
                <g id="Clip-21"></g>
                <path d="M55.0907462,46.9157481 L49.3597769,36.9769154 C49.3597769,36.9769154 50.9540927,40.6210923 50.653296,41.6638733 C50.222123,43.1743314 46.5138488,43.5762559 45.2240547,43.6688652 C44.4278281,43.6975741 43.6222889,43.7133177 42.8092996,43.7133177 C24.0919205,43.7133177 8.91798277,35.9517302 8.91798277,26.3759261 C8.91798277,19.6923112 16.3093872,13.8958936 27.1362069,11 C9.497226,13.8820022 -1.84830508,21.7037857 0.248890681,30.9082264 C2.90484198,42.5566272 26.0792277,52 52.011072,52 C54.0570485,52 56.0508745,51.9351735 58,51.8231162 L55.0907462,46.9157481" id="Fill-20" fill="#004FA2" mask="url(#mask-2)"></path>
                <path d="M68.5687204,28.5004757 C68.5687204,29.1912464 68.078673,29.6546147 67.5014218,29.6546147 L67.5014218,29.6508088 C66.9090047,29.6546147 66.4312796,29.1912464 66.4312796,28.5004757 C66.4312796,27.8087536 66.9090047,27.3491912 67.5014218,27.3491912 C68.078673,27.3491912 68.5687204,27.8087536 68.5687204,28.5004757 Z M69,28.5004757 C69,27.5518554 68.292891,27 67.5014218,27 C66.707109,27 66,27.5518554 66,28.5004757 C66,29.4481446 66.707109,30 67.5014218,30 C68.292891,30 69,29.4481446 69,28.5004757 Z M67.2521327,28.3539486 L67.2521327,27.9647954 L67.4938389,27.9647954 C67.6246445,27.9647954 67.8018957,27.9762131 67.8018957,28.1427212 C67.8018957,28.3215985 67.7118483,28.3539486 67.557346,28.3539486 L67.2521327,28.3539486 Z M67.2521327,28.6270219 L67.414218,28.6270219 L67.7867299,29.3063749 L68.1933649,29.3063749 L67.7829384,28.5994291 C67.9962085,28.583254 68.1696682,28.4766889 68.1696682,28.1788773 C68.1696682,27.8087536 67.9241706,27.6907707 67.5099526,27.6907707 L66.9090047,27.6907707 L66.9090047,29.3063749 L67.2521327,29.3063749 L67.2521327,28.6270219 Z" id="Fill-23" fill="#004FA2" mask="url(#mask-2)"></path>
            </g>
        </g>
    </g>
</svg>