<?xml version="1.0" encoding="UTF-8"?>
<svg width="92px" height="58px" viewBox="0 0 92 58" version="1.1" xmlns="http://www.w3.org/2000/svg" xmlns:xlink="http://www.w3.org/1999/xlink">
    <!-- Generator: Sketch 50.2 (55047) - http://www.bohemiancoding.com/sketch -->
    <title>Master Card ATM Alliance Logo</title>
    <desc>Created with Sketch.</desc>
    <defs>
        <polygon id="path-1" points="0 57.745148 91.6430633 57.745148 91.6430633 -0.000232 0 -0.000232"></polygon>
    </defs>
    <g id="ATM-Locator" stroke="none" stroke-width="1" fill="none" fill-rule="evenodd">
        <g id="2.0-ATM-Locator" transform="translate(-804.000000, -1428.000000)">
            <g id="Master-Card-ATM-Alliance-Logo" transform="translate(804.000000, 1428.000000)">
                <g id="FAQ-logo-Group">
                    <polygon id="Fill-1" fill="#0B479D" points="0 57.745148 91.6430633 57.745148 91.6430633 -0.000232 0 -0.000232"></polygon>
                    <path d="M50.9235139,18.270116 L50.7534886,17.971996 L49.5726278,17.743476 L50.1653873,16.939016 L50.0541722,16.744136 C48.8884506,14.851596 47.4647797,13.134216 45.8215899,11.650576 C41.6815899,7.913636 36.188957,5.635976 30.1617924,5.635976 C17.2782987,5.635976 6.8345519,16.039436 6.8345519,28.872516 C6.8345519,41.705596 17.2782987,52.109636 30.1617924,52.109636 C36.188957,52.109636 41.6815899,49.831976 45.8215899,46.095036 C50.5310582,41.843636 53.4896152,35.702596 53.4896152,28.872516 C53.4896152,25.052636 52.5626278,21.449096 50.9235139,18.270116" id="Fill-2" fill="#17751D"></path>
                    <path d="M50.9235139,18.270116 L50.7534886,17.971996 L49.5726278,17.743476 L50.1653873,16.939016 L50.0541722,16.744136 C48.8884506,14.851596 47.4647797,13.134216 45.8215899,11.650576 C41.6815899,7.913636 36.188957,5.635976 30.1617924,5.635976 C17.2782987,5.635976 6.8345519,16.039436 6.8345519,28.872516 C6.8345519,41.705596 17.2782987,52.109636 30.1617924,52.109636 C36.188957,52.109636 41.6815899,49.831976 45.8215899,46.095036 C50.5310582,41.843636 53.4896152,35.702596 53.4896152,28.872516 C53.4896152,25.052636 52.5626278,21.449096 50.9235139,18.270116 Z" id="Stroke-4" stroke="#FFFFFF" stroke-width="3"></path>
                    <path d="M61.4807468,5.63586 C55.4535823,5.63586 49.9609494,7.91352 45.8215316,11.65046 C47.4647215,13.1341 48.8889747,14.85206 50.0541139,16.74402 L50.1653291,16.9389 L49.5725696,17.74336 L50.7540127,17.97246 L50.9234557,18.27 C52.5625696,21.44956 53.489557,25.0531 53.489557,28.8724 C53.489557,35.70248 50.531,41.84352 45.8215316,46.09492 C49.9609494,49.83186 55.4535823,52.10952 61.4807468,52.10952 C74.3642405,52.10952 84.8085696,41.70548 84.8085696,28.8724 C84.8085696,16.03932 74.3642405,5.63586 61.4807468,5.63586" id="Fill-6" fill="#17751D"></path>
                    <path d="M61.4807468,5.63586 C55.4535823,5.63586 49.9609494,7.91352 45.8215316,11.65046 C47.4647215,13.1341 48.8889747,14.85206 50.0541139,16.74402 L50.1653291,16.9389 L49.5725696,17.74336 L50.7540127,17.97246 L50.9234557,18.27 C52.5625696,21.44956 53.489557,25.0531 53.489557,28.8724 C53.489557,35.70248 50.531,41.84352 45.8215316,46.09492 C49.9609494,49.83186 55.4535823,52.10952 61.4807468,52.10952 C74.3642405,52.10952 84.8085696,41.70548 84.8085696,28.8724 C84.8085696,16.03932 74.3642405,5.63586 61.4807468,5.63586 Z" id="Stroke-8" stroke="#FFFFFF" stroke-width="3"></path>
                    <polygon id="Fill-10" fill="#FFFFFF" points="82.3824481 43.29787 82.054043 43.29787 82.054043 43.11865 82.9053342 43.11865 82.9053342 43.29787 82.5769291 43.29787 82.5769291 44.18179 82.3824481 44.18179"></polygon>
                    <polygon id="Fill-12" fill="#FFFFFF" points="83.1569367 43.118882 83.4603038 43.118882 83.7397975 43.836922 84.0146329 43.118882 84.3168354 43.118882 84.3168354 44.182022 84.1217722 44.182022 84.1217722 43.369442 84.1165316 43.369442 83.8166582 44.182022 83.6571139 44.182022 83.3572405 43.369442 83.352 43.369442 83.352 44.182022 83.1569367 44.182022"></polygon>
                    <mask id="mask-2" fill="white">
                        <use xlink:href="#path-1"></use>
                    </mask>
                    <g id="Clip-15"></g>
                    <polygon id="Fill-14" fill="#17751D" points="22.5301013 42.212748 69.1123797 42.212748 69.1123797 15.532748 22.5301013 15.532748"></polygon>
                    <polygon id="Fill-16" fill="#FFFFFF" points="28.8597595 24.86025 27.2020127 24.86025 28.1528734 18.93033 26.0322152 24.86025 24.9020127 24.86025 24.7622658 18.96571 23.7648228 24.86025 22.2130506 24.86025 23.5092025 17.14741 25.8924684 17.14741 25.9588481 21.92255 27.5676835 17.14741 30.1419367 17.14741"></polygon>
                    <path d="M34.1471975,24.86025 L32.7741848,24.86025 L32.8050456,24.21123 C32.3863873,24.72453 31.8274,24.96929 31.0681089,24.96929 C30.1696532,24.96929 29.5541848,24.26981 29.5541848,23.25481 C29.5541848,21.72767 30.6249949,20.83679 32.4638304,20.83679 C32.6519063,20.83679 32.8923873,20.85535 33.1398557,20.88609 C33.1910962,20.67903 33.2044886,20.59087 33.2044886,20.47777 C33.2044886,20.06307 32.9156785,19.90937 32.1412481,19.90937 C31.3301342,19.89951 30.6622608,20.10019 30.386843,20.19009 C30.4037291,20.08627 30.616843,18.77953 30.616843,18.77953 C31.4425139,18.53825 31.9881089,18.44661 32.6006658,18.44661 C34.0237544,18.44661 34.7778051,19.08403 34.7766405,20.28637 C34.7789696,20.60885 34.7254,21.00731 34.6421342,21.52931 C34.4983114,22.43759 34.1891215,24.38697 34.1471975,24.86025 M32.9412987,22.06697 C32.7677797,22.04493 32.690919,22.04029 32.5715519,22.04029 C31.6323367,22.04029 31.1566152,22.36103 31.1566152,22.99439 C31.1566152,23.38473 31.388362,23.63471 31.7511215,23.63471 C32.4259823,23.63471 32.9127671,22.99439 32.9412987,22.06697" id="Fill-17" fill="#FFFFFF" ></path>
                    <path d="M56.3784152,17.35476 L56.1070734,19.02922 C55.5160608,18.73226 55.0869215,18.6122 54.625757,18.6122 C53.3895797,18.6122 52.5208203,19.80468 52.5208203,21.50234 C52.5208203,22.67336 53.1042633,23.38154 54.0685165,23.38154 C54.4761114,23.38154 54.9267949,23.2551 55.4764658,22.9854 L55.1847443,24.74338 C54.5739342,24.90868 54.1791494,24.96958 53.7203139,24.96958 C51.9356304,24.96958 50.8240608,23.69184 50.8240608,21.63922 C50.8240608,18.88074 52.3606937,16.95456 54.5570481,16.95456 C55.2814025,16.95456 56.1356051,17.25964 56.3784152,17.35476" id="Fill-18" fill="#FFFFFF" ></path>
                    <path d="M60.2595924,24.86025 L58.8859975,24.86025 L58.9168582,24.21123 C58.4982,24.72453 57.9397949,24.96929 57.1793392,24.96929 C56.2814658,24.96929 55.6654152,24.26981 55.6654152,23.25481 C55.6654152,21.72767 56.7362253,20.83679 58.575643,20.83679 C58.763719,20.83679 59.0042,20.85535 59.2505038,20.88609 C59.3017443,20.67903 59.315719,20.59087 59.315719,20.47777 C59.315719,20.06307 59.0269089,19.90937 58.253643,19.90937 C57.4425291,19.89951 56.7746557,20.10019 56.4986557,20.19009 C56.5155418,20.08627 56.729238,18.77953 56.729238,18.77953 C57.5543266,18.53825 58.0993392,18.44661 58.7124785,18.44661 C60.1349848,18.44661 60.8896177,19.08403 60.8872886,20.28637 C60.8907823,20.60885 60.8377949,21.00731 60.7533646,21.52931 C60.6107063,22.43759 60.3009342,24.38697 60.2595924,24.86025 M59.0519468,22.06697 C58.8790101,22.04493 58.8027316,22.04029 58.6845291,22.04029 C57.7447316,22.04029 57.2690101,22.36103 57.2690101,22.99439 C57.2690101,23.38473 57.500757,23.63471 57.8629342,23.63471 C58.5377949,23.63471 59.025162,22.99439 59.0519468,22.06697" id="Fill-19" fill="#FFFFFF" ></path>
                    <path d="M41.5135443,24.765072 C41.0605316,24.907172 40.7059241,24.969812 40.3227848,24.969812 C39.4761519,24.969812 39.0138228,24.484352 39.0138228,23.591732 C39.0015949,23.313332 39.1349367,22.584852 39.2403291,21.919592 C39.3358228,21.332632 39.9588608,17.638032 39.9588608,17.638032 L41.6067089,17.638032 L41.4139747,18.588072 L42.259443,18.588072 L42.0346835,20.094912 L41.1863038,20.094912 C40.9947342,21.289132 40.7216456,22.774512 40.7187342,22.970552 C40.7187342,23.295352 40.8922532,23.435712 41.2864557,23.435712 C41.4751139,23.435712 41.6206835,23.417732 41.7330633,23.376552 L41.5135443,24.765072 Z" id="Fill-20" fill="#FFFFFF" ></path>
                    <path d="M45.6395114,20.995072 C45.6488278,20.863992 45.8141949,19.875672 44.8726506,19.875672 C44.3480177,19.875672 43.9730304,20.275292 43.8198911,20.995072 L45.6395114,20.995072 Z M46.5659165,24.715772 C45.9999418,24.888032 45.4520177,24.969812 44.875562,24.969812 C43.0297392,24.968072 42.069562,24.007592 42.069562,22.170732 C42.069562,20.025892 43.2923468,18.446552 44.9518405,18.446552 C46.3114608,18.446552 47.1784734,19.330472 47.1784734,20.717832 C47.1784734,21.177772 47.1184987,21.627272 46.9746759,22.260632 L43.694119,22.260632 C43.5834861,23.171232 44.1680937,23.549972 45.1265241,23.549972 C45.7157899,23.549972 46.2474101,23.428172 46.8401696,23.154412 L46.5659165,24.715772 Z" id="Fill-21" fill="#FFFFFF" ></path>
                    <path d="M35.1405646,20.57028 C35.1405646,21.36488 35.5271975,21.91124 36.4035266,22.32246 C37.0748937,22.63682 37.1785392,22.72962 37.1785392,23.01498 C37.1785392,23.4059 36.8827418,23.58164 36.2270962,23.58164 C35.7321595,23.58164 35.2721595,23.50624 34.7417038,23.33572 C34.7417038,23.33572 34.5239316,24.71786 34.5134506,24.7834 C34.8901848,24.8646 35.2261595,24.94 36.2381595,24.96958 C37.9879063,24.96958 38.7955266,24.30606 38.7955266,22.87288 C38.7955266,22.01042 38.4578051,21.50466 37.6268937,21.12476 C36.9328177,20.80634 36.851881,20.73616 36.851881,20.44268 C36.851881,20.10338 37.1284633,19.92938 37.6635772,19.92938 C37.9890709,19.92938 38.4339316,19.96534 38.8543367,20.0245 L39.0907418,18.56986 C38.6610203,18.50258 38.0106152,18.4469 37.6315519,18.4469 C35.7775772,18.4469 35.1347418,19.41144 35.1405646,20.57028" id="Fill-22" fill="#FFFFFF" ></path>
                    <path d="M66.5864557,23.410772 C67.3591392,23.410772 67.9012405,22.539612 67.9012405,21.297252 C67.9012405,20.500332 67.5920506,20.067072 67.0231646,20.067072 C66.2708608,20.067072 65.7374937,20.940552 65.7374937,22.174792 C65.7374937,22.996072 66.0222278,23.410772 66.5864557,23.410772 Z M69.0320253,24.860192 L67.4645316,24.860192 L67.5419747,24.276132 C67.0866329,24.759852 66.6219747,24.969812 66.0134937,24.969812 C64.8093418,24.969812 64.0127848,23.935092 64.0127848,22.366192 C64.0127848,20.279932 65.2477975,18.520792 66.7093165,18.520792 C67.3515696,18.520792 67.839519,18.781792 68.2919494,19.376872 L68.6593671,17.147352 L70.2949873,17.147352 L69.0320253,24.860192 Z" id="Fill-23" fill="#FFFFFF" ></path>
                    <path d="M61.7513899,18.58784 C61.5452633,20.52968 61.1760987,22.49588 60.8872886,24.4383 L60.812757,24.85996 L62.4699215,24.85996 C63.0632633,21.02384 63.2059215,20.27506 64.1364025,20.36844 C64.2843013,19.58428 64.559719,18.89582 64.764681,18.55014 C64.0717696,18.40572 63.6839722,18.79606 63.1750608,19.53904 C63.2158203,19.21772 63.2886051,18.90568 63.2746304,18.58784 L61.7513899,18.58784 Z" id="Fill-24" fill="#FFFFFF" ></path>
                    <path d="M48.1079063,18.58784 C47.8994506,20.52968 47.5308684,22.49588 47.2420582,24.4383 L47.1669443,24.85996 L48.8252734,24.85996 C49.4180329,21.02384 49.5612734,20.27506 50.4900076,20.36844 C50.6384886,19.58428 50.9156532,18.89582 51.1194506,18.55014 C50.425957,18.40572 50.0381595,18.79606 49.5304127,19.53904 C49.5711722,19.21772 49.643957,18.90568 49.6305646,18.58784 L48.1079063,18.58784 Z" id="Fill-25" fill="#FFFFFF" ></path>
                    <path d="M70.1861595,24.3397 L70.2426405,24.3397 C70.2630203,24.3397 70.2857291,24.34202 70.304362,24.33158 C70.3206658,24.32172 70.3294,24.30084 70.3294,24.2817 C70.3294,24.26546 70.3195013,24.2469 70.3055266,24.23762 C70.2874759,24.22776 70.2589443,24.23008 70.2408937,24.23008 L70.1861595,24.23008 L70.1861595,24.3397 Z M70.1861595,24.58388 L70.084843,24.58388 L70.084843,24.15352 L70.2682608,24.15352 C70.3072734,24.15352 70.3451215,24.15468 70.3794759,24.17556 C70.4144127,24.19818 70.4336278,24.23994 70.4336278,24.28286 C70.4336278,24.33158 70.4056785,24.37682 70.3596785,24.39422 L70.4394506,24.58388 L70.3264886,24.58388 L70.2606911,24.41336 L70.1861595,24.41336 L70.1861595,24.58388 Z M70.251957,24.74222 C70.4604127,24.74222 70.6286911,24.57518 70.6286911,24.36928 C70.6286911,24.1628 70.4604127,23.99576 70.251957,23.99576 C70.0458304,23.99576 69.8781342,24.1628 69.8781342,24.36928 C69.8781342,24.57518 70.0458304,24.74222 70.251957,24.74222 Z M69.7599316,24.36928 C69.7599316,24.09726 69.9811975,23.87802 70.251957,23.87802 C70.5256278,23.87802 70.7457291,24.09726 70.7457291,24.36928 C70.7457291,24.64014 70.5256278,24.85996 70.251957,24.85996 C69.9811975,24.85996 69.7599316,24.64014 69.7599316,24.36928 Z" id="Fill-26" fill="#FFFFFF" ></path>
                    <path d="M16.0303013,34.712884 L17.7753899,34.712884 L17.4865797,31.357584 L17.4650354,31.357584 L16.0303013,34.712884 Z M16.8658709,28.864744 L18.8782253,28.864744 L20.1307063,38.184764 L18.1288329,38.184764 L17.9465797,36.513784 L15.2593646,36.513784 L14.4890101,38.184764 L12.4009595,38.184764 L16.8658709,28.864744 Z" id="Fill-27" fill="#FFFFFF" ></path>
                    <polygon id="Fill-28" fill="#FFFFFF" points="26.8331392 30.953034 24.584962 30.953034 23.3318987 38.185054 21.3405063 38.185054 22.5935696 30.953034 20.3448101 30.953034 20.6877722 28.864454 27.175519 28.864454"></polygon>
                    <polygon id="Fill-29" fill="#FFFFFF" points="27.8720405 28.864744 30.6128253 28.864744 30.9767494 35.508644 30.9977114 35.508644 33.6319392 28.864744 36.3727241 28.864744 34.777281 38.184764 32.8930278 38.184764 34.327762 30.783384 34.3062177 30.783384 31.2871038 38.184764 29.7557114 38.184764 29.3067747 30.783384 29.2852304 30.783384 28.1503696 38.184764 26.2655342 38.184764"></polygon>
                    <path d="M42.0792861,34.712884 L43.8243747,34.712884 L43.5355646,31.357584 L43.5140203,31.357584 L42.0792861,34.712884 Z M42.9148557,28.864744 L44.9272101,28.864744 L46.1796911,38.184764 L44.1778177,38.184764 L43.9955646,36.513784 L41.3083494,36.513784 L40.5379949,38.184764 L38.4499443,38.184764 L42.9148557,28.864744 Z" id="Fill-30" fill="#FFFFFF" ></path>
                    <polygon id="Fill-31" fill="#FFFFFF" points="48.1181544 28.864744 49.938357 28.864744 48.3429139 38.184764 46.5232937 38.184764"></polygon>
                    <polygon id="Fill-32" fill="#FFFFFF" points="51.1051848 28.864744 52.9253873 28.864744 51.3305266 38.184764 49.5103241 38.184764"></polygon>
                    <path d="M55.6235494,30.56165 L53.8033468,30.56165 L54.092157,28.86457 L55.9123595,28.86457 L55.6235494,30.56165 Z M53.653119,31.41019 L55.4733215,31.41019 L54.3169165,38.18517 L52.4972962,38.18517 L53.653119,31.41019 Z" id="Fill-33" fill="#FFFFFF" ></path>
                    <path d="M58.053281,37.010206 C59.1566987,37.010206 59.3703949,35.691866 59.4344456,35.078226 L59.4239646,35.078226 C58.9633823,35.548026 57.3143696,34.999926 57.3143696,36.304926 C57.3143696,36.840266 57.689357,37.010206 58.053281,37.010206 Z M56.2225975,33.498306 C56.5119899,31.736266 57.5822177,31.214266 58.941838,31.214266 C60.4837114,31.214266 61.4794076,31.671306 61.4794076,32.989066 C61.4794076,33.890386 61.0619139,35.769586 60.9332304,36.396566 C60.8371544,36.866366 60.7620405,37.297306 60.7620405,37.662706 C60.7620405,37.897606 60.8051291,38.067546 60.8371544,38.184706 L59.0489772,38.184706 C59.0064709,37.858746 59.0064709,37.884846 59.0064709,37.532206 L58.9855089,37.532206 C58.6425468,38.133086 58.0963696,38.380746 57.3044709,38.380746 C56.2656861,38.380746 55.4947494,37.871506 55.4947494,36.474866 C55.4947494,34.660046 56.8223443,34.307986 58.2460152,34.177486 C58.8667241,34.138046 59.723838,34.190826 59.723838,33.302266 C59.723838,32.911346 59.4984962,32.649766 58.9529013,32.649766 C58.3746987,32.649766 58.0212557,32.859146 57.9461418,33.498306 L56.2225975,33.498306 Z" id="Fill-34" fill="#FFFFFF" ></path>
                    <path d="M62.8070608,31.410132 L64.6272633,31.410132 L64.4770354,32.232572 L64.4985797,32.232572 C64.7664278,31.775532 65.4407063,31.214092 66.4148582,31.214092 C67.4105544,31.214092 68.0108835,31.958232 68.0108835,33.119972 C68.0108835,33.563672 67.8822,34.242852 67.8175671,34.582152 L67.1537696,38.185112 L65.3341494,38.185112 L65.9653392,34.594912 C66.0194911,34.281712 66.0724785,33.994612 66.0724785,33.733612 C66.0724785,33.198272 65.7941494,32.911172 65.408681,32.911172 C64.2843013,32.911172 64.1562,34.203412 63.9634658,35.312952 L63.4708582,38.185112 L61.651238,38.185112 L62.8070608,31.410132 Z" id="Fill-35" fill="#FFFFFF" ></path>
                    <path d="M72.4539013,33.877394 C72.4643823,33.550854 72.3787873,33.289274 72.2285595,33.107154 C72.0899772,32.937214 71.897243,32.858914 71.6404582,32.846154 C70.5696481,32.793954 70.2371671,34.164494 70.2371671,35.195154 C70.2371671,36.174774 70.5481038,36.748974 71.1577494,36.748974 C71.7365342,36.748974 72.0789139,36.291934 72.2180785,35.600574 L73.9847114,35.600574 C73.6528127,37.532554 72.5499772,38.381094 71.0832177,38.381094 C69.5413443,38.381094 68.4169646,37.427574 68.4169646,35.430634 C68.4169646,33.028274 69.7131165,31.214034 71.7254709,31.214034 C73.1281797,31.214034 74.2094709,32.062574 74.2199519,33.877394 L72.4539013,33.877394 Z" id="Fill-36" fill="#FFFFFF" ></path>
                    <path d="M78.4711671,34.098896 C78.5247367,33.341996 78.2359266,32.715016 77.6251165,32.715016 C76.8757241,32.715016 76.4797747,33.250356 76.2870405,34.098896 L78.4711671,34.098896 Z M76.158357,35.339516 C76.1478759,35.469436 76.1368127,35.574416 76.1368127,35.795976 C76.1903823,36.501256 76.522281,36.879416 77.1220278,36.879416 C77.7427367,36.879416 78.0431924,36.592316 78.1817747,36.135856 L79.9594709,36.135856 C79.5204329,37.754056 78.3960532,38.381036 77.0474962,38.381036 C75.5050405,38.381036 74.381243,37.427516 74.381243,35.430576 C74.381243,33.028216 75.6768127,31.213976 77.6891671,31.213976 C79.1239013,31.213976 80.227319,32.219696 80.227319,34.177776 C80.227319,34.582036 80.2057747,34.960196 80.1626861,35.339516 L76.158357,35.339516 Z" id="Fill-37" fill="#FFFFFF" ></path>
                </g>
            </g>
        </g>
    </g>
</svg>