<?xml version="1.0" encoding="UTF-8"?>
<svg width="120px" height="43px" viewBox="0 0 120 43" version="1.1" xmlns="http://www.w3.org/2000/svg" xmlns:xlink="http://www.w3.org/1999/xlink">
    <!-- Generator: Sketch 50.2 (55047) - http://www.bohemiancoding.com/sketch -->
    <title>PNC Bank Logo</title>
    <desc>Created with Sketch.</desc>
    <defs></defs>
    <g id="ATM-Locator" stroke="none" stroke-width="1" fill="none" fill-rule="evenodd">
        <g id="2.0-ATM-Locator" transform="translate(-1060.000000, -1235.000000)">
            <g id="PNC-Bank-Logo" transform="translate(1060.000000, 1235.000000)">
                <polygon id="Fill-1" fill="#0B4D88" points="0 43 120 43 120 0 0 0"></polygon>
                <g id="Group-22" transform="translate(14.000000, 14.000000)">
                    <path d="M13.9434533,7.42491 C13.9434533,11.29611 10.9213867,14.43411 7.19385333,14.43411 C3.46603111,14.43411 0.443964444,11.29611 0.443964444,7.42491 C0.443964444,3.55401 3.46603111,0.41571 7.19385333,0.41571 C10.9213867,0.41571 13.9434533,3.55401 13.9434533,7.42491" id="Fill-2" fill="#FEFEFE"></path>
                    <path d="M13.2137489,14.59239 C12.7850378,14.59239 12.4409711,14.22969 12.4409711,13.78719 C12.4409711,13.34499 12.7850378,12.98739 13.2137489,12.98739 C13.63466,12.98739 13.9816156,13.34499 13.9816156,13.78719 C13.9816156,14.22969 13.63466,14.59239 13.2137489,14.59239 Z M13.2137489,12.80169 C12.68566,12.80169 12.2624378,13.23879 12.2624378,13.78719 C12.2624378,14.33589 12.68566,14.77809 13.2137489,14.77809 C13.7392378,14.77809 14.1601489,14.33589 14.1601489,13.78719 C14.1601489,13.23879 13.7392378,12.80169 13.2137489,12.80169 Z M13.09386,13.88229 L13.1577044,13.88229 C13.3515489,13.88229 13.3310378,13.99929 13.3310378,14.13429 C13.3310378,14.21109 13.3310378,14.28759 13.36426,14.35689 L13.6092378,14.35689 C13.5861267,14.30889 13.5809267,14.09499 13.5809267,14.02059 C13.5809267,13.81419 13.4179933,13.80069 13.36426,13.79799 L13.36426,13.79199 C13.5274822,13.76619 13.5861267,13.65729 13.5861267,13.51119 C13.5861267,13.31559 13.4763489,13.21029 13.3056156,13.21029 L12.8436822,13.21029 L12.8436822,14.35689 L13.09386,14.35689 L13.09386,13.88229 Z M13.09386,13.40049 L13.2062378,13.40049 C13.2851044,13.40049 13.3359489,13.44279 13.3359489,13.55169 C13.3359489,13.62549 13.3056156,13.72059 13.2062378,13.72059 L13.09386,13.72059 L13.09386,13.40049 Z" id="Fill-4" fill="#F26E26"></path>
                    <path d="M7.19391111,0.13278 C3.31095556,0.13278 0.162933333,3.40158 0.162933333,7.43328 C0.162933333,11.46528 3.31095556,14.73408 7.19391111,14.73408 C11.0765778,14.73408 14.2246,11.46528 14.2246,7.43328 C14.2246,3.40158 11.0765778,0.13278 7.19391111,0.13278 M3.4138,3.67458 L3.41524444,3.42858 C3.41784444,2.62458 3.73966667,1.95258 4.18108889,1.83018 C4.75828889,1.67028 5.53684444,2.38398 6.31684444,3.78678 L7.04195556,5.09028 C6.83048889,5.12898 6.65311111,5.27388 6.51444444,5.52318 L4.14786667,9.77958 C3.80264444,10.39998 3.56286667,10.95828 3.42853333,11.44698 C3.42824444,11.43828 3.42795556,11.43198 3.42795556,11.42298 C3.40368889,10.29918 3.38202222,8.04288 3.4138,3.67458 M5.94851111,12.71268 L5.74282222,12.83388 C5.07144444,13.23408 4.3498,13.28058 4.02711111,12.94428 C3.60562222,12.50478 3.81131111,11.44818 4.59102222,10.04538 L5.317,8.74008 C5.45595556,8.91168 5.66482222,8.99898 5.94042222,8.99898 L10.6732889,8.99898 C11.3637333,8.99898 11.9484444,8.93628 12.4236667,8.81268 C12.4167333,8.81688 12.4112444,8.82018 12.4043111,8.82498 C11.479,9.40788 9.60786667,10.55718 5.94851111,12.71268 M10.6732889,8.46768 L9.22191111,8.46768 C9.29557778,8.25678 9.26437778,8.02458 9.12657778,7.77738 L6.76028889,3.52128 C6.41477778,2.90058 6.06955556,2.40618 5.72924444,2.03988 C5.73646667,2.04408 5.74253333,2.04768 5.74946667,2.05158 C6.69731111,2.59068 8.58866667,3.69888 12.2153778,5.91138 L12.4233778,6.03798 C13.0924444,6.44208 13.4919778,7.06788 13.3729556,7.52598 C13.2175333,8.12418 12.2335778,8.46768 10.6732889,8.46768" id="Fill-6" fill="#F26E26"></path>
                    <path d="M21.2961378,7.41408 L20.58056,7.41408 L20.58056,3.89868 C20.58056,3.07308 20.58056,2.94648 22.0978044,2.94648 C23.8028267,2.94648 24.7417156,3.74268 24.7417156,5.18808 C24.7417156,7.14978 23.0000044,7.41408 21.2961378,7.41408 M21.5252267,2.11188 L16.9162933,2.11188 L16.8108489,2.11188 L16.8108489,2.58798 L16.9035822,2.59938 C18.5453378,2.80608 18.7120267,3.03018 18.7120267,3.89958 L18.7120267,12.95928 L20.58056,12.95928 L20.58056,8.24898 L21.3342711,8.24898 C23.1097822,8.24898 26.8046711,8.24898 26.8046711,5.18808 C26.8046711,2.11188 23.37036,2.11188 21.5252267,2.11188" id="Fill-8" fill="#FEFEFE"></path>
                    <path d="M37.3757511,2.11296 L36.2773956,2.11296 L36.2773956,10.56816 C35.98764,10.14936 30.4331733,2.11296 30.4331733,2.11296 L26.4681733,2.11296 L26.4681733,2.58666 L26.56004,2.59956 C28.16424,2.81646 28.3693511,2.89026 28.3693511,4.08726 L28.3693511,12.95946 L29.5728622,12.95946 L29.5728622,3.86556 C29.8640622,4.28646 35.8726622,12.95946 35.8726622,12.95946 L37.4809067,12.95946 L37.4809067,2.11296 L37.3757511,2.11296 Z" id="Fill-10" fill="#FEFEFE"></path>
                    <path d="M38.91342,7.18029 C38.91342,10.14219 40.6536867,13.12989 44.5412644,13.12989 C46.3872644,13.12989 47.2975533,12.91899 48.1413978,12.68409 L48.2199756,12.66219 L48.2199756,11.77299 L48.0766867,11.81259 C47.1793978,12.06219 46.29742,12.20049 45.59282,12.20049 C42.4863978,12.20049 40.9766644,10.42449 40.9766644,6.77019 C40.9766644,4.32789 42.0946644,2.87079 43.96782,2.87079 C45.2239089,2.87079 45.9611533,3.38289 46.1590422,4.39299 L46.1757978,4.48029 L48.2341311,4.48029 L48.21882,4.35729 C48.1489089,3.79059 47.6445089,1.94139 44.0827978,1.94139 C40.65282,1.94139 38.91342,3.70419 38.91342,7.18029" id="Fill-12" fill="#FEFEFE"></path>
                    <path d="M54.9055867,12.12033 C53.5587867,12.12033 53.5587867,12.12033 53.5587867,10.93683 L53.5587867,7.65603 L54.3072978,7.65603 C55.3553867,7.65603 57.8094978,7.65603 57.8094978,9.99033 C57.8094978,11.40363 56.8324756,12.12033 54.9055867,12.12033 Z M53.5587867,4.02573 C53.5587867,3.05403 53.5587867,2.95293 54.7256089,2.95293 C56.3907644,2.95293 57.1996533,3.58743 57.1996533,4.89303 C57.1996533,6.61743 55.5492311,6.81633 54.3072978,6.81633 L53.5587867,6.81633 L53.5587867,4.02573 Z M57.3400533,7.17393 C58.2592978,6.87093 59.1259644,6.11523 59.1259644,4.76673 C59.1259644,2.11383 56.0900311,2.11383 55.09192,2.11383 L49.7991867,2.11383 L49.6937422,2.11383 L49.6937422,2.58363 L50.1140756,2.66793 C51.2170533,2.88723 51.8251644,3.00783 51.8251644,4.02333 L51.8251644,12.95943 L54.9754978,12.95943 C56.2772311,12.95943 59.7358089,12.95943 59.7358089,9.99033 C59.7358089,8.51343 58.9032311,7.55073 57.3400533,7.17393 Z" id="Fill-14" fill="#FEFEFE"></path>
                    <path d="M62.8914867,8.59239 C63.0041533,8.32119 64.5540422,4.58289 64.7244867,4.17339 C64.89262,4.58349 66.4303756,8.32179 66.5415978,8.59239 L62.8914867,8.59239 Z M65.6157089,2.11389 L65.5469533,2.11389 L62.4338867,2.11389 L62.4338867,2.58219 L62.5170867,2.60049 C63.40802,2.79279 63.7803978,2.92389 63.7803978,3.23409 C63.7803978,3.45429 63.65242,3.75039 63.5394644,4.01169 L63.5270422,4.04049 C63.5264644,4.04199 59.84342,12.96159 59.84342,12.96159 L61.1757756,12.96159 C61.1757756,12.96159 62.50582,9.56319 62.5572422,9.43209 L66.8241311,9.43209 C66.8769978,9.55929 68.2931311,12.96159 68.2931311,12.96159 L70.22002,12.96159 L65.6157089,2.11389 Z" id="Fill-16" fill="#FEFEFE"></path>
                    <path d="M82.4885533,12.93888 L84.2215978,12.93888 L84.2215978,7.85718 C84.5298422,8.17758 89.1000644,12.93888 89.1000644,12.93888 L90.9047533,12.92478 L85.2951089,7.15278 L90.86402,2.11668 L90.6063311,2.11668 L90.3313089,2.11668 L88.9960644,2.11668 C88.9960644,2.11668 84.5203089,6.12408 84.2215978,6.39108 C84.2215978,5.99748 84.2239089,2.11848 84.2239089,2.11848 L80.7835311,2.11848 L80.7835311,2.56458 L80.9542644,2.59008 C82.3669311,2.79708 82.4969311,2.84928 82.4969311,3.94818 L82.4885533,12.93888 Z" id="Fill-18" fill="#FEFEFE"></path>
                    <path d="M80.0880022,2.05539 L78.9902244,2.05539 L78.9902244,10.52709 C78.6998911,10.10829 73.1460022,2.05539 73.1460022,2.05539 L69.1810022,2.05539 L69.1810022,2.54619 L69.27258,2.55879 C70.87678,2.77569 71.0816022,2.84949 71.0816022,4.04679 L71.0816022,12.93609 L72.2851133,12.93609 L72.2851133,3.82539 C72.5763133,4.24599 78.5854911,12.93609 78.5854911,12.93609 L80.1934467,12.93609 L80.1934467,2.05539 L80.0880022,2.05539 Z" id="Fill-20" fill="#FEFEFE"></path>
                </g>
            </g>
        </g>
    </g>
</svg>