<?xml version="1.0" encoding="UTF-8"?><svg version="1.1" width="64px" height="32px" viewBox="0 0 64.0 32.0" xmlns="http://www.w3.org/2000/svg" xmlns:xlink="http://www.w3.org/1999/xlink"><defs><clipPath id="i0"><path d="M1044,0 L1044,2087 L0,2087 L0,0 L1044,0 Z"></path></clipPath><clipPath id="i1"><path d="M12.2192739,0 C14.8161544,0 17.5376529,0.404767697 20.035375,1.67200195 C25.0040193,4.30766239 28.1221517,10.1285332 28.1596712,16.0007785 C28.1878107,21.0261251 26.4083179,25.2434932 23.4751026,27.9632207 C20.5378672,30.6969594 16.5902873,32 12.2192739,32 L0,32 L0,0 Z M12.2037008,5.84615385 L5.39234043,5.84615385 L5.39234043,26.1538462 L12.2037008,26.1538462 C18.8372572,25.9593039 22.6807628,22.6332603 22.7676596,16.0188266 C22.7676596,14.1769516 22.2382584,12.2519254 21.3318596,10.6359703 C19.172812,7.06831794 16.5084271,5.90577159 12.2037008,5.84615385 Z"></path></clipPath><clipPath id="i2"><path d="M21.76,0 L7.89324815,14.9203601 L21.76,32 L14.020216,32 L0,14.7724642 L13.6090476,0 L21.76,0 Z"></path></clipPath><clipPath id="i3"><path d="M7.77504068,0 L21.76,14.7298615 L7.35400546,32 L0.336233955,32 L10.012635,14.9467525 L0,0 L7.77504068,0 Z"></path></clipPath></defs><g transform="translate(-893.0 -198.0)"><g clip-path="url(#i0)"><g transform="translate(893.0 198.0)"><g clip-path="url(#i1)"><polygon points="0,0 28.16,0 28.16,32 0,32 0,0" stroke="none" fill="#FFA302"></polygon></g><g transform="translate(42.24 0.0)"><g clip-path="url(#i2)"><polygon points="0,0 21.76,0 21.76,32 0,32 0,0" stroke="none" fill="#006342"></polygon></g></g><g transform="translate(28.159999999999997 0.0)"><g clip-path="url(#i3)"><polygon points="0,0 21.76,0 21.76,32 0,32 0,0" stroke="none" fill="#FFA302"></polygon></g></g></g></g></g></svg>