<?xml version="1.0" encoding="UTF-8"?>
<svg width="113px" height="138px" viewBox="0 0 113 138" version="1.1" xmlns="http://www.w3.org/2000/svg" xmlns:xlink="http://www.w3.org/1999/xlink">
    <title>25498</title>
    <g id="Footer-Links---Contact-Us,-FAQs,-ATM-Locator" stroke="none" stroke-width="1" fill="none" fill-rule="evenodd">
        <g id="Contact-Us-" transform="translate(-1151.000000, -787.000000)">
            <g id="25497" transform="translate(1151.000000, 787.000000)">
                <path d="M79.0586182,31.9836603 L80.2377233,36.2390774 L90.815226,33.3195 L89.6361209,29.0640829 C83.8006821,8.00729567 61.8881834,-4.38560292 40.7894934,1.43799557 C19.6905519,7.26184496 7.27299163,29.1308247 13.1084304,50.187612 L22.7821202,85.0948283 L33.3596229,82.1752509 L23.6859331,47.2680345 C19.4635302,32.0320858 28.4486126,16.2085081 43.7148807,11.994491 C58.9811488,7.78072482 74.8362153,16.7477116 79.0586182,31.9836603" id="Fill-3" fill="#72716F"></path>
                <path d="M113,133.752863 C113,136.098611 111.094828,138 108.744663,138 L4.25533742,138 C1.90517234,138 0,136.098611 0,133.752863 L0,65.9966369 C0,63.6511394 1.90517234,61.7497508 4.25533742,61.7497508 L108.744663,61.7497508 C111.094828,61.7497508 113,63.6511394 113,65.9966369 L113,133.752863" id="Fill-4" fill="#F2CB30"></path>
                <path d="M113,133.753114 L113,92.2374556 C78.5756628,121.304513 28.9411215,132.226082 0.814311586,136.233851 C1.58764361,137.299462 2.83613739,138 4.25508601,138 L108.744914,138 C111.094828,138 113,136.09836 113,133.753114" id="Fill-5" fill="#EAB531"></path>
                <path d="M65.8380597,88.3917729 C65.8380597,83.2448761 61.6571391,79.0725099 56.5,79.0725099 C51.3428609,79.0725099 47.1619403,83.2448761 47.1619403,88.3917729 C47.1619403,91.4601394 48.6543002,94.1737205 50.9468928,95.8718728 L47.9749949,116.945973 L65.0250051,116.945973 L62.0531072,95.8718728 C64.3456998,94.1737205 65.8380597,91.4601394 65.8380597,88.3917729" id="Fill-6" fill="#58595A"></path>
                <path d="M4.12535931,69.7848614 L4.12535931,84.3754721 C4.51202533,78.1797756 7.50001335,64.6976809 26.186189,64.6976809 L9.22266324,64.6976809 C6.41920893,64.6976809 4.12535931,66.9869749 4.12535931,69.7848614" id="Fill-7" fill="#F7DB5E"></path>
                <path d="M47.9749949,116.945973 C47.9749949,116.945973 60.6283762,113.376039 62.0531072,95.8718728 L65.0250051,116.945973 L47.9749949,116.945973" id="Fill-8" fill="#3E3D40"></path>
            </g>
        </g>
    </g>
</svg>