<?xml version="1.0" encoding="UTF-8"?>
<svg width="125px" height="170px" viewBox="0 0 125 170" version="1.1" xmlns="http://www.w3.org/2000/svg" xmlns:xlink="http://www.w3.org/1999/xlink">
   
    <g id="Footer-Links---Contact-Us,-FAQs,-ATM-Locator" stroke="none" stroke-width="1" fill="none" fill-rule="evenodd">
        <g id="Contact-Us-" transform="translate(-170.000000, -768.000000)">
            <g id="Group-6" transform="translate(170.000000, 768.000000)">
                <path d="M88.6217886,145 L66.3953721,149.966182 C64.0562815,150.488184 62.5833959,152.81147 63.1049727,155.153308 L65.7549871,164.19009 C66.2757212,166.531929 73.940119,166.116183 76.2792096,165.594181 L89.3759263,163.72206 L93,164.626918 L88.6217886,145" id="Fill-3" fill="#C2DFD3"></path>
                <path d="M111.020458,141.103186 L89,145.970133 L93.3382991,165.208129 L98.5532753,165.008922 L116.635366,166 C118.952298,165.488342 120.413427,163.211921 119.89577,160.917314 L116.156116,144.331837 C115.637624,142.03723 113.338225,140.590702 111.020458,141.103186" id="Fill-4" fill="#99CECD"></path>
                <path d="M125,170 L120.894045,151.064044 C120.550041,149.497609 118.464847,148.639138 116.234905,149.145308 L91,154.872928 L94.3217535,170 L125,170" id="Fill-5" fill="#006342"></path>
                <path d="M90.6803446,155 L65.4613787,160.677005 C63.2328451,161.178923 61.7044479,162.843922 62.0483166,164.397199 L63.2882278,170 L94,170 L90.6803446,155" id="Fill-6" fill="#006342"></path>
                <path d="M122,89.6973045 C122,91.5213804 120.523434,93 118.701892,93 L3.29727478,93 C1.47656581,93 0,91.5213804 0,89.6973045 L0,3.30227828 C0,1.47853617 1.47656581,0 3.29727478,0 L118.701892,0 C120.523434,0 122,1.47853617 122,3.30227828 L122,89.6973045" id="Fill-7" fill="#BDBDBD"></path>
                <path d="M31,21.7924126 C31,23.563941 29.5637867,25 27.7920246,25 L14.2071649,25 C12.4354028,25 11,23.563941 11,21.7924126 L11,13.2076685 C11,11.436059 12.4354028,10 14.2071649,10 L27.7920246,10 C29.5637867,10 31,11.436059 31,13.2076685 L31,21.7924126" id="Fill-8" fill="#CDCEC9"></path>
                <path d="M13.8162478,9.81196945 C12.1798558,9.81196945 10.8477693,11.086878 10.8477693,12.6538625 L10.8477693,21.3462195 C10.8477693,22.913122 12.1798558,24.1881126 13.8162478,24.1881126 L28.1837522,24.1881126 C29.8201442,24.1881126 31.1522307,22.913122 31.1522307,21.3462195 L31.1522307,12.6538625 C31.1522307,11.086878 29.8201442,9.81196945 28.1837522,9.81196945 L13.8162478,9.81196945 Z M28.1837522,25 L13.8162478,25 C11.7118254,25 10,23.3609608 10,21.3462195 L10,12.6538625 C10,10.6391213 11.7118254,9 13.8162478,9 L28.1837522,9 C30.2881746,9 32,10.6391213 32,12.6538625 L32,21.3462195 C32,23.3609608 30.2881746,25 28.1837522,25 L28.1837522,25 Z" id="Fill-9" fill="#FFFFFF"></path>
                <path d="M55,21.7924126 C55,23.563941 53.564539,25 51.7927052,25 L38.2072948,25 C36.4362715,25 35,23.563941 35,21.7924126 L35,13.2076685 C35,11.436059 36.4362715,10 38.2072948,10 L51.7927052,10 C53.564539,10 55,11.436059 55,13.2076685 L55,21.7924126" id="Fill-10" fill="#CDCEC9"></path>
                <path d="M37.8162478,9.81196945 C36.1798558,9.81196945 34.8477693,11.086878 34.8477693,12.6538625 L34.8477693,21.3462195 C34.8477693,22.913122 36.1798558,24.1881126 37.8162478,24.1881126 L52.1837522,24.1881126 C53.8210014,24.1881126 55.1522307,22.913122 55.1522307,21.3462195 L55.1522307,12.6538625 C55.1522307,11.086878 53.8210014,9.81196945 52.1837522,9.81196945 L37.8162478,9.81196945 Z M52.1837522,25 L37.8162478,25 C35.7118254,25 34,23.3609608 34,21.3462195 L34,12.6538625 C34,10.6391213 35.7118254,9 37.8162478,9 L52.1837522,9 C54.2881746,9 56,10.6391213 56,12.6538625 L56,21.3462195 C56,23.3609608 54.2881746,25 52.1837522,25 L52.1837522,25 Z" id="Fill-11" fill="#FFFFFF"></path>
                <path d="M79,21.7924126 C79,23.563941 77.5637867,25 75.7920246,25 L62.2079754,25 C60.4362133,25 59,23.563941 59,21.7924126 L59,13.2076685 C59,11.436059 60.4362133,10 62.2079754,10 L75.7920246,10 C77.5637867,10 79,11.436059 79,13.2076685 L79,21.7924126" id="Fill-12" fill="#CDCEC9"></path>
                <path d="M62.817105,9.81196945 C61.1798558,9.81196945 59.8486265,11.086878 59.8486265,12.6538625 L59.8486265,21.3462195 C59.8486265,22.913122 61.1798558,24.1881126 62.817105,24.1881126 L77.1837522,24.1881126 C78.8210014,24.1881126 80.1522307,22.913122 80.1522307,21.3462195 L80.1522307,12.6538625 C80.1522307,11.086878 78.8210014,9.81196945 77.1837522,9.81196945 L62.817105,9.81196945 Z M77.1837522,25 L62.817105,25 C60.7118254,25 59,23.3609608 59,21.3462195 L59,12.6538625 C59,10.6391213 60.7118254,9 62.817105,9 L77.1837522,9 C79.2881746,9 81,10.6391213 81,12.6538625 L81,21.3462195 C81,23.3609608 79.2881746,25 77.1837522,25 L77.1837522,25 Z" id="Fill-13" fill="#FFFFFF"></path>
                <path d="M31,40.7923952 C31,42.5640143 29.5637867,44 27.7920246,44 L14.2071649,44 C12.4354028,44 11,42.5640143 11,40.7923952 L11,32.2076048 C11,30.4360667 12.4354028,29 14.2071649,29 L27.7920246,29 C29.5637867,29 31,30.4360667 31,32.2076048 L31,40.7923952" id="Fill-14" fill="#CDCEC9"></path>
                <path d="M13.8162478,29.8119695 C12.1798558,29.8119695 10.8477693,31.086878 10.8477693,32.6537805 L10.8477693,41.3461375 C10.8477693,42.913122 12.1798558,44.1879485 13.8162478,44.1879485 L28.1837522,44.1879485 C29.8201442,44.1879485 31.1522307,42.913122 31.1522307,41.3461375 L31.1522307,32.6537805 C31.1522307,31.086878 29.8201442,29.8119695 28.1837522,29.8119695 L13.8162478,29.8119695 Z M28.1837522,45 L13.8162478,45 C11.7118254,45 10,43.3607967 10,41.3461375 L10,32.6537805 C10,30.6391213 11.7118254,29 13.8162478,29 L28.1837522,29 C30.2881746,29 32,30.6391213 32,32.6537805 L32,41.3461375 C32,43.3607967 30.2881746,45 28.1837522,45 L28.1837522,45 Z" id="Fill-15" fill="#FFFFFF"></path>
                <path d="M55,40.7923952 C55,42.5640143 53.564539,44 51.7927052,44 L38.2072948,44 C36.4362715,44 35,42.5640143 35,40.7923952 L35,32.2076048 C35,30.4360667 36.4362715,29 38.2072948,29 L51.7927052,29 C53.564539,29 55,30.4360667 55,32.2076048 L55,40.7923952" id="Fill-16" fill="#CDCEC9"></path>
                <path d="M37.8162478,29.8119695 C36.1798558,29.8119695 34.8477693,31.086878 34.8477693,32.6537805 L34.8477693,41.3461375 C34.8477693,42.913122 36.1798558,44.1879485 37.8162478,44.1879485 L52.1837522,44.1879485 C53.8210014,44.1879485 55.1522307,42.913122 55.1522307,41.3461375 L55.1522307,32.6537805 C55.1522307,31.086878 53.8210014,29.8119695 52.1837522,29.8119695 L37.8162478,29.8119695 Z M52.1837522,45 L37.8162478,45 C35.7118254,45 34,43.3607967 34,41.3461375 L34,32.6537805 C34,30.6391213 35.7118254,29 37.8162478,29 L52.1837522,29 C54.2881746,29 56,30.6391213 56,32.6537805 L56,41.3461375 C56,43.3607967 54.2881746,45 52.1837522,45 L52.1837522,45 Z" id="Fill-17" fill="#FFFFFF"></path>
                <path d="M79,40.7923952 C79,42.5640143 77.5637867,44 75.7920246,44 L62.2079754,44 C60.4362133,44 59,42.5640143 59,40.7923952 L59,32.2076048 C59,30.4360667 60.4362133,29 62.2079754,29 L75.7920246,29 C77.5637867,29 79,30.4360667 79,32.2076048 L79,40.7923952" id="Fill-18" fill="#CDCEC9"></path>
                <path d="M62.817105,29.8119695 C61.1798558,29.8119695 59.8486265,31.086878 59.8486265,32.6537805 L59.8486265,41.3461375 C59.8486265,42.913122 61.1798558,44.1879485 62.817105,44.1879485 L77.1837522,44.1879485 C78.8210014,44.1879485 80.1522307,42.913122 80.1522307,41.3461375 L80.1522307,32.6537805 C80.1522307,31.086878 78.8210014,29.8119695 77.1837522,29.8119695 L62.817105,29.8119695 Z M77.1837522,45 L62.817105,45 C60.7118254,45 59,43.3607967 59,41.3461375 L59,32.6537805 C59,30.6391213 60.7118254,29 62.817105,29 L77.1837522,29 C79.2881746,29 81,30.6391213 81,32.6537805 L81,41.3461375 C81,43.3607967 79.2881746,45 77.1837522,45 L77.1837522,45 Z" id="Fill-19" fill="#FFFFFF"></path>
                <path d="M31,60.7928351 C31,62.5637867 29.5637867,64 27.7920246,64 L14.2071649,64 C12.4354028,64 11,62.5637867 11,60.7928351 L11,52.2079754 C11,50.4362133 12.4354028,49 14.2071649,49 L27.7920246,49 C29.5637867,49 31,50.4362133 31,52.2079754 L31,60.7928351" id="Fill-20" fill="#CDCEC9"></path>
                <path d="M13.8162478,48.8124327 C12.1798558,48.8124327 10.8477693,50.0868852 10.8477693,51.6543058 L10.8477693,60.3465148 C10.8477693,61.9131148 12.1798558,63.1875673 13.8162478,63.1875673 L28.1837522,63.1875673 C29.8201442,63.1875673 31.1522307,61.9131148 31.1522307,60.3465148 L31.1522307,51.6543058 C31.1522307,50.0868852 29.8201442,48.8124327 28.1837522,48.8124327 L13.8162478,48.8124327 Z M28.1837522,64 L13.8162478,64 C11.7118254,64 10,62.3603631 10,60.3465148 L10,51.6543058 C10,49.6396369 11.7118254,48 13.8162478,48 L28.1837522,48 C30.2881746,48 32,49.6396369 32,51.6543058 L32,60.3465148 C32,62.3603631 30.2881746,64 28.1837522,64 L28.1837522,64 Z" id="Fill-21" fill="#FFFFFF"></path>
                <path d="M55,60.7928351 C55,62.5637867 53.564539,64 51.7927052,64 L38.2072948,64 C36.4362715,64 35,62.5637867 35,60.7928351 L35,52.2079754 C35,50.4362133 36.4362715,49 38.2072948,49 L51.7927052,49 C53.564539,49 55,50.4362133 55,52.2079754 L55,60.7928351" id="Fill-22" fill="#CDCEC9"></path>
                <path d="M37.8162478,48.8124327 C36.1798558,48.8124327 34.8477693,50.0868852 34.8477693,51.6543058 L34.8477693,60.3465148 C34.8477693,61.9131148 36.1798558,63.1875673 37.8162478,63.1875673 L52.1837522,63.1875673 C53.8210014,63.1875673 55.1522307,61.9131148 55.1522307,60.3465148 L55.1522307,51.6543058 C55.1522307,50.0868852 53.8210014,48.8124327 52.1837522,48.8124327 L37.8162478,48.8124327 Z M52.1837522,64 L37.8162478,64 C35.7118254,64 34,62.3603631 34,60.3465148 L34,51.6543058 C34,49.6396369 35.7118254,48 37.8162478,48 L52.1837522,48 C54.2881746,48 56,49.6396369 56,51.6543058 L56,60.3465148 C56,62.3603631 54.2881746,64 52.1837522,64 L52.1837522,64 Z" id="Fill-23" fill="#FFFFFF"></path>
                <path d="M79,60.7928351 C79,62.5637867 77.5637867,64 75.7920246,64 L62.2079754,64 C60.4362133,64 59,62.5637867 59,60.7928351 L59,52.2079754 C59,50.4362133 60.4362133,49 62.2079754,49 L75.7920246,49 C77.5637867,49 79,50.4362133 79,52.2079754 L79,60.7928351" id="Fill-24" fill="#CDCEC9"></path>
                <path d="M62.817105,48.8124327 C61.1798558,48.8124327 59.8486265,50.0868852 59.8486265,51.6543058 L59.8486265,60.3465148 C59.8486265,61.9131148 61.1798558,63.1875673 62.817105,63.1875673 L77.1837522,63.1875673 C78.8210014,63.1875673 80.1522307,61.9131148 80.1522307,60.3465148 L80.1522307,51.6543058 C80.1522307,50.0868852 78.8210014,48.8124327 77.1837522,48.8124327 L62.817105,48.8124327 Z M77.1837522,64 L62.817105,64 C60.7118254,64 59,62.3603631 59,60.3465148 L59,51.6543058 C59,49.6396369 60.7118254,48 62.817105,48 L77.1837522,48 C79.2881746,48 81,49.6396369 81,51.6543058 L81,60.3465148 C81,62.3603631 79.2881746,64 77.1837522,64 L77.1837522,64 Z" id="Fill-25" fill="#FFFFFF"></path>
                <path d="M31,79.7926618 C31,81.5645196 29.5637867,83 27.7920246,83 L14.2071649,83 C12.4354028,83 11,81.5645196 11,79.7926618 L11,71.2073382 C11,69.4354804 12.4354028,68 14.2071649,68 L27.7920246,68 C29.5637867,68 31,69.4354804 31,71.2073382 L31,79.7926618" id="Fill-26" fill="#CDCEC9"></path>
                <path d="M13.8162478,68.8116537 C12.1798558,68.8116537 10.8477693,70.0869922 10.8477693,71.6536725 L10.8477693,80.3463275 C10.8477693,81.9130078 12.1798558,83.1883463 13.8162478,83.1883463 L28.1837522,83.1883463 C29.8201442,83.1883463 31.1522307,81.9130078 31.1522307,80.3463275 L31.1522307,71.6536725 C31.1522307,70.0869922 29.8201442,68.8116537 28.1837522,68.8116537 L13.8162478,68.8116537 Z M28.1837522,84 L13.8162478,84 C11.7118254,84 10,82.3610997 10,80.3463275 L10,71.6536725 C10,69.6389003 11.7118254,68 13.8162478,68 L28.1837522,68 C30.2881746,68 32,69.6389003 32,71.6536725 L32,80.3463275 C32,82.3610997 30.2881746,84 28.1837522,84 L28.1837522,84 Z" id="Fill-27" fill="#FFFFFF"></path>
                <path d="M55,79.7926618 C55,81.5645196 53.564539,83 51.7927052,83 L38.2072948,83 C36.4362715,83 35,81.5645196 35,79.7926618 L35,71.2073382 C35,69.4354804 36.4362715,68 38.2072948,68 L51.7927052,68 C53.564539,68 55,69.4354804 55,71.2073382 L55,79.7926618" id="Fill-28" fill="#CDCEC9"></path>
                <path d="M37.8162478,68.8116537 C36.1798558,68.8116537 34.8477693,70.0869922 34.8477693,71.6536725 L34.8477693,80.3463275 C34.8477693,81.9130078 36.1798558,83.1883463 37.8162478,83.1883463 L52.1837522,83.1883463 C53.8210014,83.1883463 55.1522307,81.9130078 55.1522307,80.3463275 L55.1522307,71.6536725 C55.1522307,70.0869922 53.8210014,68.8116537 52.1837522,68.8116537 L37.8162478,68.8116537 Z M52.1837522,84 L37.8162478,84 C35.7118254,84 34,82.3610997 34,80.3463275 L34,71.6536725 C34,69.6389003 35.7118254,68 37.8162478,68 L52.1837522,68 C54.2881746,68 56,69.6389003 56,71.6536725 L56,80.3463275 C56,82.3610997 54.2881746,84 52.1837522,84 L52.1837522,84 Z" id="Fill-29" fill="#FFFFFF"></path>
                <path d="M79,79.7926618 C79,81.5645196 77.5637867,83 75.7920246,83 L62.2079754,83 C60.4362133,83 59,81.5645196 59,79.7926618 L59,71.2073382 C59,69.4354804 60.4362133,68 62.2079754,68 L75.7920246,68 C77.5637867,68 79,69.4354804 79,71.2073382 L79,79.7926618" id="Fill-30" fill="#CDCEC9"></path>
                <path d="M62.817105,68.8116537 C61.1798558,68.8116537 59.8486265,70.0869922 59.8486265,71.6536725 L59.8486265,80.3463275 C59.8486265,81.9130078 61.1798558,83.1883463 62.817105,83.1883463 L77.1837522,83.1883463 C78.8210014,83.1883463 80.1522307,81.9130078 80.1522307,80.3463275 L80.1522307,71.6536725 C80.1522307,70.0869922 78.8210014,68.8116537 77.1837522,68.8116537 L62.817105,68.8116537 Z M77.1837522,84 L62.817105,84 C60.7118254,84 59,82.3610997 59,80.3463275 L59,71.6536725 C59,69.6389003 60.7118254,68 62.817105,68 L77.1837522,68 C79.2881746,68 81,69.6389003 81,71.6536725 L81,80.3463275 C81,82.3610997 79.2881746,84 77.1837522,84 L77.1837522,84 Z" id="Fill-31" fill="#FFFFFF"></path>
                <path d="M113,21.652874 C113,23.5015065 111.543517,25 109.747571,25 L92.2533332,25 C90.4565654,25 89,23.5015065 89,21.652874 L89,12.347126 C89,10.4984935 90.4565654,9 92.2533332,9 L109.747571,9 C111.543517,9 113,10.4984935 113,12.347126 L113,21.652874" id="Fill-32" fill="#CDCEC9"></path>
                <path d="M92.6876014,9.84489341 C91.1058995,9.84489341 89.819835,11.1714973 89.819835,12.8020203 L89.819835,22.1979797 C89.819835,23.8285027 91.1058995,25.1550212 92.6876014,25.1550212 L110.313227,25.1550212 C111.894101,25.1550212 113.180993,23.8285027 113.180993,22.1979797 L113.180993,12.8020203 C113.180993,11.1714973 111.894101,9.84489341 110.313227,9.84489341 L92.6876014,9.84489341 Z M110.313227,26 L92.6876014,26 C90.6537481,26 89,24.2943298 89,22.1979797 L89,12.8020203 C89,10.7055848 90.6537481,9 92.6876014,9 L110.313227,9 C112.346252,9 114,10.7055848 114,12.8020203 L114,22.1979797 C114,24.2943298 112.346252,26 110.313227,26 L110.313227,26 Z" id="Fill-33" fill="#FFFFFF"></path>
                <path d="M113,41.6529408 C113,43.501414 111.543567,45 109.74686,45 L92.2532217,45 C90.4565156,45 89,43.501414 89,41.6529408 L89,32.3470592 C89,30.4985014 90.4565156,29 92.2532217,29 L109.74686,29 C111.543567,29 113,30.4985014 113,32.3470592 L113,41.6529408" id="Fill-34" fill="#CDCEC9"></path>
                <path d="M92.6868955,29.8449019 C91.1051411,29.8449019 89.8190341,31.1715191 89.8190341,32.8019731 L89.8190341,42.1981123 C89.8190341,43.8285663 91.1051411,45.1551835 92.6868955,45.1551835 L110.313105,45.1551835 C111.894859,45.1551835 113.180966,43.8285663 113.180966,42.1981123 L113.180966,32.8019731 C113.180966,31.1715191 111.894859,29.8449019 110.313105,29.8449019 L92.6868955,29.8449019 Z M110.313105,46 L92.6868955,46 C90.6538028,46 89,44.2944835 89,42.1981123 L89,32.8019731 C89,30.7056019 90.6538028,29 92.6868955,29 L110.313105,29 C112.346197,29 114,30.7056019 114,32.8019731 L114,42.1981123 C114,44.2944835 112.346197,46 110.313105,46 L110.313105,46 Z" id="Fill-35" fill="#FFFFFF"></path>
                <path d="M113,61.6525003 C113,63.5013215 111.543567,65 109.74686,65 L92.2532217,65 C90.4565156,65 89,63.5013215 89,61.6525003 L89,52.346654 C89,50.4978328 90.4565156,49 92.2532217,49 L109.74686,49 C111.543567,49 113,50.4978328 113,52.346654 L113,61.6525003" id="Fill-36" fill="#CDCEC9"></path>
                <path d="M92.6868955,48.8445773 C91.1051411,48.8445773 89.8190341,50.1716482 89.8190341,51.8018787 L89.8190341,61.1981213 C89.8190341,62.8292058 91.1051411,64.1554227 92.6868955,64.1554227 L110.313105,64.1554227 C111.894859,64.1554227 113.180966,62.8292058 113.180966,61.1981213 L113.180966,51.8018787 C113.180966,50.1716482 111.894859,48.8445773 110.313105,48.8445773 L92.6868955,48.8445773 Z M110.313105,65 L92.6868955,65 C90.6538028,65 89,63.29462 89,61.1981213 L89,51.8018787 C89,49.70538 90.6538028,48 92.6868955,48 L110.313105,48 C112.346197,48 114,49.70538 114,51.8018787 L114,61.1981213 C114,63.29462 112.346197,65 110.313105,65 L110.313105,65 Z" id="Fill-37" fill="#FFFFFF"></path>
                <path d="M113,81.6525003 C113,83.5013215 111.543567,85 109.74686,85 L92.2532217,85 C90.4565156,85 89,83.5013215 89,81.6525003 L89,72.346654 C89,70.4986785 90.4565156,69 92.2532217,69 L109.74686,69 C111.543567,69 113,70.4986785 113,72.346654 L113,81.6525003" id="Fill-38" fill="#CDCEC9"></path>
                <path d="M92.6868955,69.8453888 C91.1051411,69.8453888 89.8190341,71.1715391 89.8190341,72.8016878 L89.8190341,82.1974583 C89.8190341,83.8284609 91.1051411,85.1546112 92.6868955,85.1546112 L110.313105,85.1546112 C111.894859,85.1546112 113.180966,83.8284609 113.180966,82.1974583 L113.180966,72.8016878 C113.180966,71.1715391 111.894859,69.8453888 110.313105,69.8453888 L92.6868955,69.8453888 Z M110.313105,86 L92.6868955,86 C90.6538028,86 89,84.2938517 89,82.1974583 L89,72.8016878 C89,70.7052944 90.6538028,69 92.6868955,69 L110.313105,69 C112.346197,69 114,70.7052944 114,72.8016878 L114,82.1974583 C114,84.2938517 112.346197,86 110.313105,86 L110.313105,86 Z" id="Fill-39" fill="#FFFFFF"></path>
                <path d="M111,15.0000486 C111,16.1045836 110.226393,17 109.273033,17 L93.7278073,17 C92.7736074,17 92,16.1045836 92,15.0000486 C92,13.8954164 92.7736074,13 93.7278073,13 L109.273033,13 C110.226393,13 111,13.8954164 111,15.0000486" id="Fill-40" fill="#C33239"></path>
                <path d="M111,34.0000973 C111,35.1046054 110.226393,36 109.273033,36 L93.7278073,36 C92.7736074,36 92,35.1046054 92,34.0000973 C92,32.8953946 92.7736074,32 93.7278073,32 L109.273033,32 C110.226393,32 111,32.8953946 111,34.0000973" id="Fill-41" fill="#D4DB2E"></path>
                <path d="M109.273033,55 L93.7278073,55 C92.7736074,55 92,54.1043034 92,53.0004863 C92,51.8956966 92.7736074,51 93.7278073,51 L109.273033,51 C110.226393,51 111,51.8956966 111,53.0004863 C111,54.1043034 110.226393,55 109.273033,55 Z" id="Fill-42" fill="#18934F"></path>
                <polyline id="Fill-43" fill="#006342" points="20.0262823 13.8691985 20 13.8691985 18.3357355 14.6859889 18 13.1076829 20.3086053 12 22 12 22 21 20.0262823 21 20.0262823 13.8691985"></polyline>
                <path d="M41,22 L41,20.7472742 L42.0933005,19.712481 C43.9412248,17.9833822 44.8397041,16.9895267 44.865187,15.9545615 C44.865187,15.2331648 44.4492396,14.6613281 43.4726675,14.6613281 C42.7443485,14.6613281 42.1064529,15.0424092 41.6642006,15.3963993 L41.1043979,13.9123243 C41.7422935,13.4086883 42.7311961,13 43.8762844,13 C45.7891492,13 46.8438142,14.1711086 46.8438142,15.7776525 C46.8438142,17.2618135 45.8154542,18.4462526 44.5922729,19.5900981 L43.811344,20.2708152 L43.811344,20.2980783 L47,20.2980783 L47,22 L41,22" id="Fill-44" fill="#006342"></path>
                <path d="M66.4053942,19.8571831 C66.7579469,20.0447325 67.5687354,20.3929297 68.3786982,20.3929297 C69.4115866,20.3929297 69.9342232,19.8840001 69.9342232,19.2277888 C69.9342232,18.3706621 69.0978395,17.9821972 68.2226503,17.9821972 L67.4118618,17.9821972 L67.4118618,16.5224931 L68.1830191,16.5224931 C68.8493188,16.5089578 69.6989129,16.254493 69.6989129,15.5179156 C69.6989129,14.9956198 69.2811339,14.6073241 68.4439246,14.6073241 C67.7520297,14.6073241 67.019678,14.9152536 66.6662997,15.1295353 L66.2617311,13.6563804 C66.7711573,13.3215494 67.7908353,13 68.88895,13 C70.7053805,13 71.7118481,13.9777606 71.7118481,15.169803 C71.7118481,16.0939298 71.2024219,16.817141 70.1571488,17.1920705 L70.1571488,17.2188875 C71.1760011,17.4063522 72,18.1966481 72,19.3348874 C72,20.8750423 70.6797853,22 68.523187,22 C67.4250722,22 66.4970414,21.7054367 66,21.3839719 L66.4053942,19.8571831" id="Fill-45" fill="#006342"></path>
                <path d="M21.9534308,37.2754218 L21.9534308,35.2815051 C21.9534308,34.7416135 21.9803072,34.1875534 22.0219222,33.6060309 L21.9664355,33.6060309 C21.678598,34.1875534 21.4453802,34.7138012 21.1428041,35.2815051 L19.948972,37.2476969 L19.948972,37.2754218 L21.9534308,37.2754218 Z M21.9534308,41 L21.9534308,38.8539027 L18,38.8539027 L18,37.4831396 L21.3768888,32 L23.9292792,32 L23.9292792,37.2754218 L25,37.2754218 L25,38.8539027 L23.9292792,38.8539027 L23.9292792,41 L21.9534308,41 L21.9534308,41 Z" id="Fill-46" fill="#006342"></path>
                <path d="M47.6613568,33.702024 L44.3746224,33.702024 L44.1917056,35.0636431 C44.3746224,35.0364658 44.5311728,35.0364658 44.739632,35.0364658 C45.5479264,35.0364658 46.370228,35.2270512 46.9700632,35.6762514 C47.609448,36.1257095 48,36.8607878 48,37.8956769 C48,39.5431741 46.6437792,41 44.3614392,41 C43.3306784,41 42.4696512,40.7550599 42,40.4962731 L42.3526504,38.9440686 C42.7308432,39.13474 43.500412,39.3797661 44.2699808,39.3797661 C45.0914584,39.3797661 45.9656688,38.9713319 45.9656688,38.0318216 C45.9656688,37.1194886 45.2743752,36.561407 43.5786872,36.561407 C43.109036,36.561407 42.782752,36.5885844 42.4309256,36.6430251 L42.9912112,32 L47.6613568,32 L47.6613568,33.702024" id="Fill-47" fill="#006342"></path>
                <path d="M70.8347495,37.9539594 C70.8347495,37.1486667 70.3855422,36.4507747 69.4720355,36.4507747 C68.8949905,36.4507747 68.4173748,36.7863698 68.2069753,37.229196 C68.1510463,37.3365118 68.1226379,37.4975704 68.1226379,37.7389886 C68.1643627,38.6650752 68.628662,39.4970696 69.5980977,39.4970696 C70.3571338,39.4970696 70.8347495,38.839527 70.8347495,37.9539594 Z M72.0012682,33.5791011 C71.7624604,33.5654535 71.5094483,33.5791011 71.1720989,33.6057181 C69.2749524,33.7534681 68.4315789,34.6793852 68.1927711,35.6993095 L68.2353836,35.6993095 C68.684591,35.2564833 69.317565,35.0015022 70.1742549,35.0015022 C71.7065314,35.0015022 73,36.0349046 73,37.846474 C73,39.5775989 71.6079899,41 69.626506,41 C67.1949271,41 66,39.2690446 66,37.1890161 C66,35.5518138 66.632974,34.182901 67.6166138,33.3104724 C68.5301205,32.5188274 69.7108434,32.0893945 71.1445783,32.0221737 C71.5378567,31.9953871 71.7908687,31.9953871 72.0012682,32.0088652 L72.0012682,33.5791011 L72.0012682,33.5791011 Z" id="Fill-48" fill="#006342"></path>
                <polyline id="Fill-49" fill="#006342" points="25 52 25 53.3294461 21.4962841 61 19.3914121 61 22.895128 53.7580175 22.895128 53.7309038 19 53.7309038 19 52 25 52"></polyline>
                <path d="M44.352245,54.3838707 C44.352245,54.9734937 44.9222951,55.348247 45.6634504,55.5631168 C46.1632574,55.4286117 46.6045285,55.000564 46.6045285,54.4515462 C46.6045285,53.9152176 46.2767271,53.3797349 45.478837,53.3797349 C44.7367812,53.3797349 44.352245,53.8348529 44.352245,54.3838707 Z M46.7900425,58.5086944 C46.7900425,57.7456528 46.1911746,57.2905348 45.3365496,57.075665 C44.6233115,57.2634646 44.2099575,57.7456528 44.2099575,58.3750352 C44.1955487,59.0044177 44.708864,59.5940408 45.521163,59.5940408 C46.291136,59.5940408 46.7900425,59.1253877 46.7900425,58.5086944 Z M42,58.57637 C42,57.5316289 42.6411939,56.8083466 43.6534157,56.3929881 L43.6534157,56.3532287 C42.7555641,55.924335 42.3133925,55.2145878 42.3133925,54.4515462 C42.3133925,52.9779115 43.7245594,52 45.5778979,52 C47.7455294,52 48.6433809,53.1792462 48.6433809,54.2366764 C48.6433809,54.9870289 48.2156182,55.7230003 47.3033578,56.151894 L47.3033578,56.1924993 C48.2012093,56.5139581 49,57.2372403 49,58.3615001 C49,59.9417238 47.5888331,61 45.4356104,61 C43.0833655,61 42,59.7547702 42,58.57637 L42,58.57637 Z" id="Fill-50" fill="#8D9596"></path>
                <path d="M69.166731,55.0170886 C69.166731,55.7683962 69.5953943,56.4121321 70.478837,56.4121321 C71.063296,56.4121321 71.4766499,56.1436264 71.6765728,55.8353108 C71.7477165,55.7141868 71.790943,55.5803575 71.790943,55.3254042 C71.790943,54.4004573 71.4199151,53.4882158 70.436511,53.4882158 C69.6944552,53.4882158 69.1532227,54.1056941 69.166731,55.0170886 Z M67.8555255,59.3885637 C68.126592,59.4156683 68.3688409,59.4156683 68.7966036,59.3885637 C69.4531069,59.3487537 70.1222179,59.1742674 70.6211244,58.8523994 C71.2199923,58.4636168 71.6189373,57.9003479 71.790943,57.2430596 L71.7477165,57.2295073 C71.3343625,57.6318422 70.7354947,57.8605379 69.894378,57.8605379 C68.3256143,57.8605379 67,56.8280194 67,55.1382126 C67,53.4348535 68.4543934,52 70.4932459,52 C72.8743085,52 74,53.7160644 74,55.7548438 C74,57.5649276 73.3876238,58.8922094 72.375402,59.764641 C71.4910588,60.5151015 70.2798147,60.9309888 68.8398302,60.9843511 C68.4688023,61.0114558 68.0977743,60.9979034 67.8555255,60.9843511 L67.8555255,59.3885637 L67.8555255,59.3885637 Z" id="Fill-51" fill="#006342"></path>
                <path d="M44.1856388,75.5131121 C44.1712002,77.5086944 44.6855743,78.4595357 45.5284259,78.4595357 C46.3712776,78.4595357 46.8287998,77.4689351 46.8287998,75.4860419 C46.8287998,73.5581352 46.3857161,72.5404643 45.5139874,72.5404643 C44.7144515,72.5404643 44.1712002,73.4913056 44.1856388,75.5131121 Z M49,75.4598177 C49,78.151612 47.8431094,80 45.4715741,80 C43.0711615,80 42.0144386,77.9773475 42,75.5131121 C42,72.9955823 43.142452,71 45.5428645,71 C48.0290061,71 49,73.075947 49,75.4598177 L49,75.4598177 Z" id="Fill-52" fill="#006342"></path>
                <path d="M96.2857783,82.5374831 C92.7452652,83.3293394 90.5219984,86.7795113 91.0631284,90.316746 C91.0234125,90.316746 90.9936255,90.3109418 90.9671482,90.3092835 L89.5704699,84.039108 C88.7455362,80.3376979 85.0511237,77.9828581 81.3517466,78.8111979 C77.6664357,79.636221 75.3099549,83.3434353 76.1348887,87.0456746 L74.6347834,80.3128228 C73.8098497,76.6139002 70.1195742,74.2574021 66.4193698,75.0849127 C62.732404,75.9099358 60.3759232,79.6188084 61.1992021,83.3193894 L55.2020908,56.3946158 C54.3788119,52.6940349 50.6885365,50.3375368 46.9875046,51.1658765 C43.3005389,51.9900705 40.9457129,55.6989431 41.7706466,59.3986949 L51.851056,104.651418 C52.0330875,105.473125 51.4489318,106.368627 50.7117041,106.783212 C49.9802684,107.196967 48.9683386,107.1041 48.3560507,106.520365 C41.9733636,101.16808 40.8646261,94.7154872 33.7405742,96.3083207 C32.0865696,96.67813 30.7445008,97.8970084 30.2232287,99.5122294 C29.7176775,101.126621 30.0817406,102.897726 31.2045441,104.163038 L62.3617216,144.843724 C63.1891377,145.778197 64.4650132,146.189465 65.6854518,145.917498 C71.5617603,144.602436 92.289359,139.964894 104.924002,137.138257 C110.485892,135.894504 113.992481,130.367264 112.749702,124.786957 C108.73177,106.750045 104.502847,87.7653932 104.502847,87.7653932 C103.676175,84.0656414 99.9851554,81.7091433 96.2857783,82.5374831" id="Fill-80" fill="#DCAC88"></path>
                <path d="M119.902788,163.129876 C120.384925,165.285697 119.026466,167.421526 116.873239,167.902908 C114.716814,168.384289 112.578779,167.028905 112.096642,164.873084 C111.616104,162.717263 112.974564,160.578235 115.12859,160.096854 C117.285814,159.615473 119.42225,160.975655 119.902788,163.129876" id="Fill-81" fill="#EEA84C"></path>
            </g>
        </g>
    </g>
</svg>