<?xml version="1.0" encoding="UTF-8"?>
<svg width="157px" height="150px" viewBox="0 0 157 150" version="1.1" xmlns="http://www.w3.org/2000/svg" xmlns:xlink="http://www.w3.org/1999/xlink">
    
    <g id="Footer-Links---Contact-Us,-FAQs,-ATM-Locator" stroke="none" stroke-width="1" fill="none" fill-rule="evenodd">
        <g id="Contact-Us-" transform="translate(-803.000000, -789.000000)">
            <g id="Group-12" transform="translate(803.000000, 789.000000)">
                <path d="M6.51786764,14.1313701 C6.51786764,15.106169 7.30819659,15.8965691 8.28303618,15.8965691 L109.716293,15.8965691 C110.691636,15.8965691 111.481797,15.106169 111.481797,14.1313701 L111.481797,10 L118,10 L118,25 L0,25 L0,10 L6.51786764,10 L6.51786764,14.1313701" id="Fill-84-Copy" fill="#23445A"></path>
                <path d="M109.958956,15.0076563 C109.958956,15.419396 109.630378,15.7528711 109.224684,15.7528711 L9.77548401,15.7528711 C9.36962228,15.7528711 9.04112742,15.419396 9.04112742,15.0076563 C9.04112742,15.0051042 9.04204945,15.0025521 9.04204945,15 L7,15 L7,19.2084219 C7,20.1977882 7.79060054,21 8.76577513,21 L110.23389,21 C111.209567,21 112,20.1977882 112,19.2084219 L112,15 L109.958118,15 C109.958118,15.0025521 109.958956,15.0051042 109.958956,15.0076563" id="Fill-85-Copy" fill="#3DA6BA"></path>
                <path d="M10.7349545,16 L110.265129,16 C110.671154,16 111,15.5570621 111,15.0101695 C111,15.0067797 111,15.0033898 111,15 L10,15 C10,15.0033898 10,15.0067797 10,15.0101695 C10,15.5570621 10.3287623,16 10.7349545,16" id="Fill-86-Copy" fill="#23445A"></path>
                <path d="M13.1374588,16.9578304 C17.1792926,19.3820949 22.4032879,18.8332849 25.8572507,15.2121565 C27.8734733,13.090713 28.9892726,10.2754108 29,7.27858562 C29.005803,5.42094421 28.5420702,3.65151956 27.7501375,2.05598371 L25.3123907,2.04665309 C26.3355077,3.56754399 26.9058052,5.36920169 26.8985832,7.26671029 C26.8907995,9.68249237 25.9968761,11.9379574 24.3788265,13.6361301 C21.3007289,16.8645243 16.4776349,17.0604673 13.1489337,14.3138723 L13.1905004,2 L13.1189223,2 L13,37 L13.06893,36.9669187 L13.1374588,16.9578304" id="Fill-87-Copy" fill="#FFFEFD"></path>
                <path d="M29,45.8838443 C28.5075056,44.1211876 27.5586686,42.4994139 26.1994473,41.1691222 C24.0650835,39.0728805 21.2502363,38.0105903 18.4256656,38 C16.5948931,37.9935872 14.7748413,38.4745326 13.1259077,39.3611238 L13.1284009,38.7465825 L13.056513,38.7789694 L13,53.948181 L13.0740487,53.9489906 L13.1186773,41.8662501 C16.5844215,39.3303563 21.5180914,39.5813547 24.6596337,42.6605387 C26.3179585,44.2936478 27.2327215,46.455473 27.2249094,48.7549425 C27.2179283,50.683582 26.5243141,52.4956288 25.3229969,53.9919033 L27.4893571,54 C27.1811949,51.1831499 27.7252158,48.3679191 29,45.8838443" id="Fill-88-Copy" fill="#FFFEFD"></path>
                <path d="M23.4620323,42.5479056 C20.3539925,39.4359146 15.472937,39.1822419 12.0441527,41.7451543 L12,53.9566302 L24.1183211,54 C25.306827,52.4877835 25.9930443,50.6564303 26,48.7072421 C26.0076797,46.383273 25.1026721,44.1984147 23.4620323,42.5479056" id="Fill-89-Copy" fill="#419F46"></path>
                <path d="M24.9721968,3.00142857 L13.0006355,2.95 L13,2.99761905 L25,3.05 C24.9913413,3.0347619 24.9823649,3.01761905 24.9721968,3.00142857" id="Fill-90-Copy" fill="#3E7B52"></path>
                <path d="M24.4343078,14.4499833 C26.0818103,12.7789768 26.9920056,10.5595931 27,8.18245708 C27.0072845,6.31530352 26.426606,4.5424675 25.3848655,3.04590677 L13.0423233,3 L13,15.1168835 C16.3892927,17.8195403 21.3001803,17.6267318 24.4343078,14.4499833" id="Fill-91-Copy" fill="#419F46"></path>
                <polyline id="Fill-92-Copy" fill="#FFFEFD" points="95.000831 53.9755 106.999169 54.0275 107 54.0255 95 53.9725 95.000831 53.9755"></polyline>
                <path d="M95.1458427,16.0730904 C98.6003719,19.6398565 103.828848,20.2545258 107.946765,17.9987736 L107.873874,38.454632 C106.25226,37.5199978 104.465209,37.007212 102.661778,37.0004759 C99.8788262,36.9903718 97.0999695,38.0740422 94.9763104,40.238015 C93.6487163,41.5894456 92.7117838,43.2381066 92.2048246,45.0358038 L93.9656681,49 C93.9361842,48.7086636 93.9181663,48.4148011 93.9189853,48.1167286 C93.9279943,45.7270963 94.8362619,43.4848163 96.4865408,41.7974227 C99.6028242,38.6221925 104.468485,38.3965331 107.865684,41.0564515 L107.866503,41.0572935 L108,3.05473083 L107.998362,3.05557284 L107.955774,15.4180044 C104.54629,17.9794073 99.7330447,17.6922809 96.6675391,14.5204188 C95.0336401,12.822079 94.1360195,10.576431 94.1433905,8.17837858 C94.1507614,6.29479599 94.7404392,4.51057092 95.7944883,3.00926214 L93.3104705,3 C92.4914736,4.57793194 92.0033514,6.33016053 92,8.17501053 C91.9894284,11.1515257 93.1065403,13.9537442 95.1458427,16.0730904" id="Fill-93-Copy" fill="#FFFEFD"></path>
                <path d="M43.988612,52.9973265 L27.5038761,52.9322705 C28.4140233,51.1882365 28.945112,49.2294287 28.9475523,47.1672443 C28.9515381,46.0800079 28.813743,45.0212892 28.5610915,44 C27.3133707,46.7341321 26.7808991,49.8327557 27.0825191,52.9331617 L44,53 C43.9975597,52.9991088 43.9951194,52.9982176 43.988612,52.9973265" id="Fill-94-Copy" fill="#FFFEFD"></path>
                <path d="M49,53.9795 C49,53.9795 49.0025281,53.9805 49.0025281,53.9815 L58,54.0205 C58,54.0195 58,54.0195 58,54.0185 L49,53.9795" id="Fill-95-Copy" fill="#FFFEFD"></path>
                <polyline id="Fill-96-Copy" fill="#FFFEFD" points="94.9995 53.9985 95.0005 54.0015 94.9995 53.9985"></polyline>
                <polyline id="Fill-97-Copy" fill="#FFFEFD" points="93 48 93 48 91 45 93 48"></polyline>
                <path d="M77,53.994 C77,53.995 77,53.995 77,53.997 L80,54.006 C80,54.005 79.9977247,54.003 79.9977247,54.003 L77,53.994" id="Fill-98-Copy" fill="#FFFEFD"></path>
                <path d="M94.7332602,53.9955656 C93.6627913,52.5934174 92.9933096,50.9420575 92.8230875,49.175404 L90.9366054,45 C90.6391555,46.0394166 90.4768303,47.1258376 90.4724431,48.2370911 C90.4645462,50.2893181 91.0243488,52.2422152 91.9947902,53.9866969 L79,53.9388057 C79,53.9388057 79.0017549,53.9405794 79.0017549,53.9414663 L95,54 L94.9991226,53.9973394 L94.7332602,53.9955656" id="Fill-99-Copy" fill="#FFFEFD"></path>
                <path d="M58,53.955 C58,53.956 58,53.956 58,53.957 L78,54.045 C78,54.043 78,54.043 78,54.042 L58,53.955" id="Fill-100-Copy" fill="#FFFEFD"></path>
                <path d="M64.5552623,20.6071895 C64.7229601,20.6985201 64.882356,20.7923415 65.0234879,20.8936353 L64.9238654,21.1634756 L64.371791,22.6837141 C63.9425842,22.3980985 63.413755,22.1324097 62.8251523,21.9256705 C62.1336064,21.6807386 61.3565513,21.5188345 60.5454584,21.5155133 C58.6459902,21.5097014 57.5252376,22.6031771 57.5202565,24.1300578 C57.5152754,25.6004796 58.3844813,26.5187668 60.3644776,27.326627 C63.0916424,28.4134605 64.771111,29.6779734 64.7611487,32.0044116 C64.7545072,34.227065 63.1738309,35.9116984 60.7330807,36.3027592 L60.7239487,38.9820654 L59.035348,38.9745929 L59.0511216,36.3766539 C57.4638038,36.3201951 56.3712775,35.8867901 55.5693167,35.4276465 L56.2467494,33.6641367 C56.8062955,33.9846239 57.9004822,34.6065019 59.616479,34.6131441 C61.6761733,34.6197863 62.2863609,33.3868239 62.2896816,32.2891968 C62.2938325,30.9250505 61.4785888,30.2276173 59.1515742,29.2271326 C56.3986737,28.0896522 55.0106008,26.7205243 55.0188656,24.3376273 C55.0288649,22.19302 56.5090885,20.2186196 59.2669702,19.8009899 L59.2769325,17.0095963 L60.9630426,17.0154082 L60.9580614,19.6963749 C61.2228911,19.7030171 61.4877208,19.7262649 61.75006,19.7586457 C62.7969259,19.8823571 63.7989618,20.1895599 64.5552623,20.6071895 Z M48.3873677,37.4834141 C49.8991385,39.330782 51.8417764,40.8111671 54.062527,41.7717984 C55.8690143,42.5530898 57.8548219,42.9939672 59.9444029,42.99989 C68.2105763,43.0313297 74.96996,36.3210253 74.999927,28.05312 C75.0015071,27.5333661 74.9774317,27.018594 74.9267903,26.5146154 C74.854564,25.783971 74.7142624,25.0774047 74.5407532,24.381632 C73.2863405,19.3484885 69.4981965,15.3058664 64.5959415,13.7250177 C64.5793377,13.7192057 64.5602434,13.7100727 64.5403189,13.7042607 C63.1240197,13.2542502 61.61723,13.0068275 60.0523273,13.0000922 C53.871584,12.978598 48.5417826,16.7165082 46.2288812,22.0601755 C46.2180887,22.0809325 46.2097869,22.1016894 46.1981643,22.1224463 C45.4335619,23.9116948 45.0076759,25.879453 45.0001013,27.9443536 C44.9869212,31.5577222 46.2604283,34.8829844 48.3873677,37.4834141 L48.3873677,37.4834141 Z" id="Fill-101-Copy" fill="#FFFEFD"></path>
                <path d="M45.0095109,53.994 L48,54.009 C48,54.008 47.997962,54.007 47.997962,54.007 L45,53.991 C45.0054348,53.992 45.0074728,53.993 45.0095109,53.994" id="Fill-102-Copy" fill="#FFFEFD"></path>
                <path d="M107,3.00047619 L95.0273807,2.95 C95.0177169,2.9652381 95.0088585,2.98142857 95,2.99761905 L107,3.05 L107,3.00047619" id="Fill-103-Copy" fill="#3E7B52"></path>
                <path d="M95.5506077,14.402927 C98.6481917,17.5449668 103.511804,17.8293936 106.956967,15.2920734 L107,3.04587528 L94.668421,3 C93.603342,4.48719325 93.0074936,6.25464276 93,8.12051561 C92.9925974,10.4960211 93.8996111,12.7205553 95.5506077,14.402927" id="Fill-104-Copy" fill="#419F46"></path>
                <path d="M95.5772386,42.5023811 C93.9207532,44.1430268 93.0090697,46.3231862 93,48.6466156 C92.9992048,48.9364303 93.0172905,49.2221515 93.0468853,49.5054167 L95.0856365,53.9566097 L106.95643,54 L107,41.7827566 L106.999178,41.7819379 C103.589202,39.1957104 98.705242,39.4151181 95.5772386,42.5023811" id="Fill-105-Copy" fill="#419F46"></path>
                <polyline id="Fill-106-Copy" fill="#3E7B52" points="95 54 95 54 93 50 95 54"></polyline>
                <path d="M94.7556452,53.9985286 L95,54 L93,50 C93.1564516,51.4655141 93.7717742,52.8353872 94.7556452,53.9985286" id="Fill-107-Copy" fill="#3E7B52"></path>
                <path d="M92,3.83939394 L28,3 C28.0067619,3.05151515 28.0133569,3.10909091 28.019451,3.16060606 L91.9799646,4 C91.9874779,3.95151515 91.9924867,3.89090909 92,3.83939394" id="Fill-108-Copy" fill="#3E7B52"></path>
                <path d="M59.5867767,14.0118409 C61.1733336,14.0185636 62.7009733,14.2655263 64.1368705,14.7147001 L64.1932627,14.7354184 C69.1633522,16.3133277 73.0039142,20.3484329 74.2756848,25.3722175 C74.4515948,26.0666965 74.5938379,26.771949 74.6670636,27.5012348 C74.7184057,28.0042763 74.7428143,28.5180913 74.7412124,29.0368787 C74.7108307,37.2894104 67.8579147,43.9872375 59.4773589,43.9558562 C57.3588635,43.9499445 55.3455775,43.5098868 53.5140932,42.7300482 C51.2626132,41.7712032 49.2930942,40.2935707 47.7604044,38.4496378 C45.6040337,35.8540434 44.3129046,32.5349643 44.326267,28.9283145 C44.3339464,26.8672534 44.7657256,24.9031542 45.5409081,23.1172327 C45.5526915,23.0965143 45.5611082,23.075796 45.57205,23.0550777 C47.9169559,17.7213465 53.320508,13.9903867 59.5867767,14.0118409 Z M12.0728049,38.1579235 L12.0702798,38.7869325 C13.7402468,37.8794689 15.5835145,37.387201 17.4376399,37.3938309 C20.2982399,37.4046044 23.1489924,38.4919033 25.3105815,40.6374952 C26.6871406,41.999105 27.6480807,43.6590589 28.1468572,45.4632125 C28.4082814,46.4129415 28.5508611,47.3974773 28.5467369,48.4085326 C28.5442118,50.3262228 27.9946824,52.1477798 27.0529325,53.769612 L44.1100609,53.8301096 L47.8243717,53.8433693 L56.8134583,53.8756899 L77.1542125,53.9477898 L79.3720256,53.9552484 L91.837229,54 C90.9063367,52.3698805 90.3693482,50.5450085 90.3769232,48.6273184 C90.3811316,47.5889149 90.5368414,46.5737159 90.8221692,45.6024398 C91.3431659,43.833093 92.3060418,42.2104321 93.6703966,40.8803143 C95.8528593,38.7504682 98.7086618,37.6838878 101.568673,37.6938326 C103.422041,37.7004624 105.258575,38.2051614 106.925091,39.1250559 L107,18.9917955 C102.768059,21.2119735 97.3948075,20.6069978 93.8446233,17.0964812 C91.7488531,15.0105581 90.6008087,12.2525318 90.6117505,9.32295759 C90.6151172,7.5072017 91.1167554,5.78260653 91.9584301,4.22955928 L27.4717499,4 C28.3023987,5.55884839 28.7888025,7.28758722 28.7826583,9.10251438 C28.771464,12.0304311 27.6011153,14.7809988 25.4863232,16.8536622 C21.8635025,20.391527 16.3841156,20.9277178 12.1446839,18.5591965 L12.0728049,38.1081995 L12,38.1405201 L12,38.1910729 L12.0728049,38.1579235 L12.0728049,38.1579235 Z" id="Fill-109-Copy" fill="#419F46"></path>
                <path d="M65,22.4408175 C64.8767983,22.2577349 64.7637981,22.0635822 64.6515825,21.870281 C63.9366989,21.4419529 62.989537,21.1268805 62,21 C62.0863196,21.2580187 62.1624379,21.5160375 62.2691603,21.7680954 C62.48339,22.2798751 62.7399948,22.7584445 63.0162176,23.2225376 C63.572587,23.4345728 64.0724562,23.7070678 64.4781585,24 L65,22.4408175" id="Fill-110-Copy" fill="#3E7B52"></path>
                <path d="M65,21.5149254 C64.6985816,21.3328358 64.358156,21.1641791 64,21 C64.2535461,21.338806 64.5088652,21.6791045 64.787234,22 L65,21.5149254" id="Fill-111-Copy" fill="#3E7B52"></path>
                <path d="M61.9092263,19.752494 C61.6399486,19.7200726 61.3681145,19.6967956 61.0962804,19.6901451 L61.1013933,17.0058192 L59.3706876,17 L59.3604619,19.7948912 C56.5296375,20.2130441 55.0102637,22.1899184 55,24.3372128 C54.9915166,26.7230955 56.4163023,28.0939389 59.2420138,29.2328446 C61.6305751,30.2345828 62.467381,30.93289 62.4631203,32.2987455 C62.4597117,33.3977479 61.8333855,34.6322551 59.7192147,34.6256046 C57.9578319,34.6189541 56.8347053,33.9962969 56.2603598,33.6754081 L55.5650099,35.4411276 C56.3881815,35.9008464 57.5096038,36.3347944 59.1389043,36.3913241 L59.1227135,38.9925181 L60.8559756,39 L60.8653492,36.3173368 C63.3706543,35.925786 64.9931376,34.2390417 65,32.0136034 C65.0101805,29.6842503 63.286292,28.418153 60.486997,27.3299577 C58.4546322,26.5210852 57.5624368,25.6016475 57.5675496,24.1293833 C57.5726625,22.6005895 58.7230577,21.5057437 60.6727645,21.5115629 C61.5053098,21.5148881 62.3029171,21.6769952 63.0127536,21.922234 C62.7127987,21.4691657 62.4341474,21.0019649 62.2015119,20.5023428 C62.0856203,20.2562727 62.0029622,20.0043833 61.9092263,19.752494" id="Fill-112-Copy" fill="#3E7B52"></path>
                <path d="M6.51786764,10.8688607 C6.51786764,9.8932782 7.30819659,9.10292228 8.28303618,9.10292228 L109.716293,9.10292228 C110.691636,9.10292228 111.481797,9.8932782 111.481797,10.8688607 L111.481797,15 L118,15 L118,0 L0,0 L0,15 L6.51786764,15 L6.51786764,10.8688607" id="Fill-113-Copy" fill="#23445A"></path>
                <path d="M110.23389,9 L8.76577513,9 C7.79060054,9 7,9.80415009 7,10.7967595 L7,15 L9.04204945,15 C9.04607286,14.5906765 9.37238837,14.2606595 9.77548401,14.2606595 L109.224684,14.2606595 C109.627025,14.2606595 109.953927,14.5906765 109.958118,15 L112,15 L112,10.7967595 C112,9.80415009 111.209567,9 110.23389,9" id="Fill-114-Copy" fill="#3DA6BA"></path>
                <path d="M110.265955,14 L10.7340446,14 C10.3306137,14 10.0040268,14.4463668 10,15 L111,15 C110.995805,14.4463668 110.668631,14 110.265955,14" id="Fill-115-Copy" fill="#23445A"></path>
                <path d="M112.356804,130.125551 C113.808292,128.729564 119.284687,128.559166 120.665041,130.027139 C121.191791,130.591183 120.890148,134.24517 121,134.955009 L118.915512,136.961512 C117.631504,138.196214 115.707292,138.323784 114.28912,137.377028 C113.457126,135.940036 111.112415,131.322892 112.356804,130.125551" id="Fill-116-Copy" fill="#C2DFD3"></path>
                <polyline id="Fill-117-Copy" fill="#37B7CE" points="127.798037 118.441964 122 112 131 122 127.798037 118.441964"></polyline>
                <path d="M122.395396,112.840907 L122.225033,113 L117,107.517167 L130.23882,94.9580616 C131.63026,93.6334063 133.83659,93.6903447 135.160892,95.0794744 L138,98.0586927 C137.899293,98.1374016 137.802781,98.2228093 137.707109,98.3132408 L122.395396,112.840907" id="Fill-118-Copy" fill="#C2DFD3"></path>
                <path d="M107.504296,126.372498 C107.285321,126.570226 107.093825,126.782662 106.928091,127 L103.979228,124.049596 C102.625876,122.692459 102.681693,120.547675 104.107178,119.25672 L117.653574,107 L123,112.35011 L107.504296,126.372498" id="Fill-119-Copy" fill="#99CECD"></path>
                <path d="M119.813406,136.882583 C121.242289,135.562706 125.654962,134.192031 127.013732,135.580786 C128.374276,136.970403 128.321026,143.258977 126.892144,144.578854 C125.461486,145.899592 121.733966,143.816029 120.373422,142.425551 C119.01199,141.038518 118.381861,138.201599 119.813406,136.882583" id="Fill-120-Copy" fill="#C2DFD3"></path>
                <path d="M86.5386232,23.2255257 C92.9307777,21.6638491 94.6095253,28.724293 94.6095253,28.724293 L101.38489,54.0884195 C101.38489,54.0884195 105.144882,56.2222944 108.099042,55.28862 C108.665892,55.1087148 108.514117,54.0159577 107.907018,52.375989 L107.907018,34.4337826 C113.54449,39.2229242 121.50219,46.0268367 122.69291,49.2792885 C123.648002,51.8904117 123.991801,57.2492529 124.188019,64.2638877 C124.337278,69.5610946 124.402684,75.7994721 124.582969,82.5175965 C124.660953,85.4393893 125.953135,88.9908501 128,92.832158 C123.672319,96.8525382 115.024505,104.88497 109.427282,110.083062 C107.429891,111.936252 104.652662,112.435988 102.232649,111.624749 C92.54589,104.630937 94.9122365,101.583377 92.1064975,96.4069398 C89.171624,90.9972921 83.9458722,77.2703632 84.9923642,63.9473879 C86.0137002,50.9609018 84.869938,54.210022 82.6771683,39.7301567 C82.6209864,39.3553543 82.562289,38.9772204 82.5052686,38.5782641 C80.198458,22.7574391 86.5386232,23.2255257 86.5386232,23.2255257" id="Fill-121-Copy" fill="#DCAC88"></path>
                <path d="M151,142.889485 C150.969671,142.927142 150.940208,142.96398 150.909879,143 L131,123 L151,142.889485" id="Fill-122-Copy" fill="#37B7CE"></path>
                <polyline id="Fill-123-Copy" fill="#37B7CE" points="131 122 122 112 131 122"></polyline>
                <path d="M114.644111,131.244422 C115.994503,129.983404 118.131995,130.03773 119.417005,131.363774 C119.906532,131.871638 120.20159,132.490623 120.304692,133.131832 C120.469824,134.172254 120.132017,135.271941 119.297137,136.051434 C117.945069,137.313274 115.807577,137.259772 114.522567,135.932082 C114.338995,135.742764 114.185598,135.536162 114.058187,135.319681 C113.282822,134.0208 113.485674,132.325176 114.644111,131.244422 Z M120.96019,137.768459 C122.310582,136.506618 124.44975,136.559298 125.733083,137.886165 C127.018093,139.214678 126.963608,141.311984 125.613216,142.573825 C124.261986,143.835666 122.124494,143.784632 120.839484,142.455296 C119.554475,141.129252 119.608121,139.029477 120.96019,137.768459 Z M124.532735,150 L157,148 L131.754943,122.439523 L122.616536,113 L122,112.593566 C121.787089,112.791938 114.766814,119.576556 114.605035,119.795505 C113.732436,120.962687 104.250621,128.230384 105,129 L124.532735,150 Z" id="Fill-124-Copy" fill="#006342"></path>
                <polyline id="Fill-125-Copy" fill="#182E41" points="131 122 122 112 131 122"></polyline>
                <path d="M141.493051,97.5439001 C140.660361,96.6830645 139.02285,96.8691911 137.702876,97.9244626 C137.601535,98.0025693 137.504416,98.0873234 137.408141,98.177063 L122,112.593566 L131.207726,122.121753 L157,148 L157,114.367586 L141.493051,97.5439001" id="Fill-126-Copy" fill="#006342"></path>
            </g>
        </g>
    </g>
</svg>